<svg width="127" height="115" viewBox="0 0 127 115" fill="none" xmlns="http://www.w3.org/2000/svg">
<path d="M13.1243 53.3505C14.7611 52.1987 16.4897 51.1835 18.2927 50.3149L22.4196 15.8968L41.6647 21.1842L38.525 63.5832C39.6658 61.738 40.7636 59.8747 41.8185 57.9931C43.1412 55.5924 44.3713 53.2248 45.5088 50.8903L47.4581 17.2162L18.1439 9.04688L16.8246 12.6181L10.5352 55.2998C11.4081 54.6153 12.2513 53.9606 13.1243 53.3505Z" fill="#3352A2"/>
<path d="M6.73581 80.1059C6.67629 80.3439 6.46301 80.4332 6.09596 80.3787C5.64155 80.2976 5.19967 80.1575 4.78153 79.962C4.21939 79.7105 3.67281 79.4257 3.1447 79.1089C2.59046 78.7831 2.0645 78.4115 1.57235 77.9978C1.15694 77.6603 0.768844 77.2904 0.411688 76.8917C0.287363 76.7839 0.186628 76.6517 0.115788 76.5031C0.044948 76.3546 0.00552935 76.1931 0 76.0287C0.749298 74.1987 1.64502 72.4321 2.67845 70.7462C3.83933 68.8368 5.11994 67.0028 6.51261 65.2553C7.97774 63.4167 9.54078 61.6583 11.1949 59.9877C12.8188 58.3485 14.5469 56.816 16.3683 55.3996C18.0283 54.0984 19.8011 52.9481 21.6657 51.9623C23.2704 51.0953 24.9958 50.4734 26.7845 50.1171C27.3753 50.0264 27.9793 50.0791 28.5454 50.2709C29.1509 50.4663 29.7156 50.7706 30.212 51.1687C30.7292 51.5888 31.1733 52.0916 31.5264 52.6567C31.8823 53.1995 32.1253 53.8085 32.2406 54.4473C32.3278 55.9031 32.1804 57.3634 31.8042 58.7725C31.326 60.7551 30.7415 62.7105 30.0532 64.6304C29.2993 66.7764 28.4197 69.0564 27.4145 71.4703C26.4092 73.8842 25.3428 76.3081 24.2152 78.7418C23.0777 81.1789 21.9468 83.5647 20.8225 85.8993C19.6982 88.2338 18.6434 90.3948 17.6579 92.3821C17.0462 93.6254 16.4708 94.7828 15.9318 95.8542C15.3961 96.9404 14.9398 97.8928 14.543 98.7261C14.1462 99.5594 13.8635 100.214 13.6502 100.71C13.5007 100.985 13.4016 101.284 13.3575 101.593V101.791H13.4022C17.6174 97.9524 21.5525 93.8167 25.1775 89.416C29.0985 84.6978 32.742 79.7559 36.0897 74.615C39.4477 69.4811 42.505 64.1566 45.246 58.6683C47.8061 53.5692 49.9926 48.291 51.7884 42.8754C51.957 42.5232 52.3142 42.4637 52.8548 42.7018C53.4842 42.9931 54.0608 43.387 54.5611 43.8674C55.1191 44.3789 55.6183 44.9512 56.0491 45.5737C56.4757 46.1887 56.6394 46.6847 56.5451 47.0617C55.5313 49.724 54.3722 52.3286 53.0731 54.8639C51.6181 57.7408 49.9647 60.7516 48.113 63.8963C46.2612 67.041 44.2523 70.2287 42.0864 73.4593C39.9338 76.7132 37.7331 79.8711 35.4845 82.9331C33.236 85.9952 30.9841 88.8985 28.7289 91.6431C26.477 94.3976 24.3144 96.8478 22.2411 98.9939C20.4527 100.888 18.5298 102.65 16.4874 104.267C14.7216 105.635 13.1988 106.484 11.9191 106.831C11.2784 106.901 10.6302 106.823 10.0244 106.603C9.40341 106.386 8.84251 106.026 8.38753 105.551C7.91267 105.068 7.52801 104.503 7.25166 103.885C6.96133 103.22 6.81915 102.501 6.83502 101.777C7.98542 98.0664 9.39083 94.4402 11.0412 90.9238C12.6945 87.3922 14.4273 83.816 16.2394 80.1951C18.0944 76.4354 19.9313 72.6459 21.75 68.8266C23.5933 64.9287 25.1371 60.896 26.3679 56.7636C26.4572 56.5206 26.5514 56.2676 26.6556 55.9849C26.7597 55.7022 26.7796 55.603 26.73 55.6823C25.6707 56.1566 24.6864 56.7833 23.8085 57.5424C22.5453 58.5344 21.1581 59.7562 19.6469 61.2079C18.1358 62.6595 16.5965 64.2418 15.0291 65.9547C13.5252 67.5914 12.1111 69.3085 10.7932 71.0983C9.66422 72.615 8.66849 74.2264 7.81711 75.9146C7.06814 77.4026 6.74573 78.6724 6.8251 79.6694L6.73581 80.1059Z" fill="#C12026"/>
<path d="M58.697 72.3876C56.0353 78.3841 51.383 83.2764 45.5279 86.2362C45.5635 87.0649 45.7553 87.8795 46.0934 88.6369C46.2206 88.9685 46.4438 89.2547 46.7345 89.4588C47.0252 89.6629 47.3701 89.7757 47.7253 89.7827L47.6161 89.748C48.3764 89.7798 49.1314 89.6086 49.8035 89.252C50.7605 88.7643 51.6466 88.1485 52.4373 87.4217C53.4749 86.482 54.4261 85.4511 55.2795 84.3415C56.3231 82.9879 57.2648 81.5588 58.0968 80.0659C58.573 79.2028 59.0227 78.3216 59.446 77.4221C59.8676 76.5194 60.2693 75.6613 60.6612 74.8528C60.7678 74.644 60.9168 74.4598 61.0987 74.3121C61.2807 74.1643 61.4915 74.0562 61.7177 73.9947C62.1014 73.888 62.5115 73.9324 62.8635 74.1187C63.2127 74.3193 63.4744 74.643 63.5976 75.0264C63.6651 75.2827 63.6806 75.5499 63.6431 75.8123C63.6056 76.0747 63.5159 76.3269 63.3793 76.5541L62.4964 78.4588C61.7193 80.0559 60.7505 81.835 59.5898 83.7958C58.374 85.8413 57.0044 87.7913 55.4928 89.6289C54.6635 90.599 53.7229 91.4681 52.6903 92.2181C51.8632 92.8161 50.9833 93.3374 50.0615 93.7756C49.3434 94.1161 48.5943 94.3869 47.8245 94.5841C47.1499 94.7428 46.6192 94.8519 46.2422 94.9164C43.7688 95.3231 41.8657 94.9032 40.5331 93.6565C39.1988 92.4066 38.4945 90.5217 38.4003 87.9921C38.3446 85.7247 38.694 83.4655 39.432 81.3208C40.3538 78.7155 41.5388 76.2109 42.9685 73.8459C43.6355 72.8071 44.3695 71.813 45.1658 70.8698C46.0881 69.7711 47.0965 68.7478 48.1816 67.8095C49.2811 66.8567 50.4801 66.0253 51.7578 65.3294C52.9223 64.6678 54.1984 64.2257 55.5225 64.0249C56.0778 63.9109 56.6519 63.9259 57.2005 64.0686C57.7492 64.2114 58.2577 64.4781 58.6871 64.8483C59.4906 65.5774 59.8874 66.6785 59.8676 68.1467C59.872 68.8311 59.7785 69.5126 59.5898 70.1705C59.3593 70.9583 59.0503 71.7211 58.6672 72.4471L58.697 72.3876ZM55.5771 68.8908C54.3964 69.3503 53.3289 70.0592 52.4473 70.969C51.4374 71.9789 50.5394 73.0948 49.7688 74.2973C48.9528 75.5382 48.2331 76.8399 47.6161 78.1909C47.0391 79.4191 46.542 80.6832 46.1281 81.9755C48.241 80.6746 50.1498 79.0684 51.7925 77.2088C53.484 75.2991 54.8437 73.1196 55.8152 70.7607V70.8103C55.9591 70.5537 56.0549 70.273 56.0979 69.982C56.1326 69.7141 56.1723 69.486 56.2021 69.2826C56.2169 68.8164 56.0037 68.6675 55.5771 68.8908Z" fill="#C12026"/>
<path d="M71.7575 95.8987L73.2951 96.6229C74.3814 97.0941 75.4825 97.5603 76.6035 98.0117C77.7968 98.4874 79.0216 98.8802 80.269 99.1873H80.2244C80.527 99.2369 80.6311 99.5493 80.5468 100.14C80.4312 100.834 80.2016 101.504 79.8673 102.124C79.475 102.886 78.953 103.574 78.3247 104.157C77.701 104.768 76.9043 105.171 76.043 105.313C75.3443 105.437 74.6244 105.332 73.9895 105.015L71.0383 103.388C70.6193 103.11 70.1855 102.855 69.7387 102.625L68.5086 101.995C67.6391 103.513 66.6887 104.983 65.6615 106.399C64.7076 107.719 63.6224 108.939 62.4226 110.04C61.2599 111.106 59.9645 112.018 58.5686 112.753C57.1058 113.509 55.5373 114.039 53.916 114.325C52.9081 114.49 51.886 114.552 50.8656 114.509C49.9082 114.473 48.9696 114.233 48.1127 113.805C47.2541 113.367 46.5344 112.699 46.0344 111.875C45.4335 110.816 45.1238 109.616 45.1366 108.398C45.0389 106.679 45.3517 104.962 46.0493 103.388C46.7648 101.769 47.7624 100.289 48.9956 99.0186C50.2636 97.7086 51.732 96.6086 53.3456 95.7598C54.9359 94.9053 56.6548 94.3156 58.4347 94.0139C59.3225 93.87 60.136 93.7659 60.875 93.7113C61.6141 93.6568 62.3035 93.632 62.9434 93.6419C63.5584 93.6501 64.1719 93.7048 64.7786 93.8055C65.3639 93.9048 65.9443 94.0188 66.5196 94.1528L68.3053 89.5597L68.4442 89.1976C67.7851 89.796 67.071 90.3308 66.3113 90.7948C65.645 91.2013 64.9159 91.4947 64.1537 91.6628C63.1068 91.7715 62.0507 91.5805 61.1082 91.1122C60.3389 90.7061 59.68 90.1188 59.1886 89.401C58.714 88.6843 58.3775 87.8853 58.1966 87.0449C58.009 86.2305 57.8994 85.4001 57.8692 84.5649C57.8697 83.9684 57.9178 83.373 58.0131 82.7842C58.176 81.3837 58.4903 80.005 58.9505 78.6723C59.4782 77.0857 60.1231 75.5405 60.88 74.0495C61.6791 72.4621 62.577 70.9264 63.5684 69.4515C64.5457 67.9845 65.653 66.6083 66.8768 65.3395C68.0024 64.1577 69.2645 63.1137 70.6365 62.2296C71.8682 61.4269 73.2503 60.8835 74.6988 60.6324C75.0971 60.5657 75.5003 60.5325 75.9041 60.5332C76.3335 60.5347 76.7625 60.5612 77.1888 60.6126C77.9179 60.7061 78.5977 61.0312 79.1282 61.5401C79.6309 62.0563 80.0151 62.6758 80.2541 63.3555C80.5298 64.1156 80.7098 64.907 80.7898 65.7115C80.8799 66.56 80.8982 67.4145 80.8444 68.266C80.8356 68.3576 80.8071 68.4463 80.7608 68.5259C80.7146 68.6055 80.6517 68.6742 80.5765 68.7273C80.3871 68.8806 80.1767 69.0059 79.9516 69.0993C79.6977 69.2085 79.4311 69.2852 79.158 69.3275C78.9027 69.3735 78.6422 69.3835 78.3842 69.3572C79.4534 69.7296 80.4143 70.36 81.1817 71.1925C81.5292 71.5703 81.7943 72.0162 81.9604 72.5019C82.1166 72.9704 82.1166 73.4769 81.9604 73.9453L71.7575 95.8987ZM56.2225 109.648C57.83 108.586 59.2316 107.242 60.3592 105.68C61.6578 103.91 62.8185 102.043 63.8313 100.095C62.9574 99.8781 62.0661 99.7387 61.1677 99.6783C60.2596 99.6136 59.3473 99.6401 58.4446 99.7577C57.3002 99.9239 56.1775 100.215 55.0965 100.626C53.9482 101.048 52.8582 101.615 51.8526 102.312C50.9173 102.953 50.0972 103.748 49.4271 104.663C48.8033 105.509 48.4914 106.545 48.5442 107.595C48.5331 108.203 48.6819 108.803 48.9758 109.336C49.2303 109.768 49.6016 110.121 50.0471 110.352C50.5106 110.592 51.0158 110.74 51.5352 110.789C52.1024 110.843 52.6744 110.823 53.2365 110.729C53.7649 110.645 54.2822 110.502 54.7791 110.303C55.2765 110.122 55.7591 109.903 56.2225 109.648ZM67.09 85.0807C67.639 84.7954 68.1235 84.4003 68.5136 83.9201C69.0642 83.305 69.6346 82.5908 70.2397 81.7773C70.8448 80.9639 71.4351 80.0859 72.0303 79.1584C72.6255 78.2308 73.1513 77.3579 73.6076 76.5295C74.054 75.316 74.4707 74.0908 74.8576 72.8541C75.2202 71.7266 75.4548 70.562 75.5569 69.382C76.233 69.049 77.0121 68.9921 77.7295 69.2233C77.6167 69.0962 77.5549 68.9319 77.5559 68.762C77.5696 68.6504 77.5594 68.5371 77.5261 68.4297C77.4875 68.3046 77.474 68.1731 77.4864 68.0428C77.4864 67.7204 77.4269 67.3881 77.3723 67.0508C77.319 66.7202 77.217 66.3992 77.0698 66.0984C76.936 65.8279 76.73 65.5996 76.4745 65.4388C76.1829 65.2729 75.8445 65.2084 75.5123 65.2552C74.2039 65.4835 73.0066 66.1353 72.1047 67.1103C70.9414 68.282 69.9253 69.5912 69.079 71.0089C67.3347 73.9116 65.9994 77.0412 65.111 80.3091C64.9958 80.7647 64.908 81.2269 64.8481 81.693C64.7755 82.2237 64.749 82.7598 64.7687 83.2951C64.7633 83.6354 64.7865 83.9755 64.8382 84.3119C64.8778 84.5986 65.0002 84.8675 65.1903 85.0857C65.2807 85.1845 65.3901 85.264 65.512 85.3194C65.6339 85.3749 65.7658 85.405 65.8996 85.4081C66.3157 85.388 66.7222 85.2762 67.09 85.0807Z" fill="#C12026"/>
<path d="M104.455 64.4117C104.451 64.5103 104.423 64.6065 104.375 64.6926C104.327 64.7787 104.259 64.8523 104.177 64.9077C103.965 65.0638 103.729 65.1844 103.478 65.2649C103.195 65.3592 102.905 65.4305 102.61 65.4782C102.343 65.5337 102.068 65.5337 101.802 65.4782C102.296 65.6948 102.768 65.9607 103.21 66.2718C103.646 66.5855 104.037 66.9577 104.371 67.3779C104.686 67.7753 104.933 68.223 105.1 68.7022C105.256 69.1561 105.276 69.6455 105.16 70.1109L104.852 70.9194C104.738 71.217 104.624 71.5196 104.51 71.832C104.258 72.4934 104.01 73.2027 103.766 73.9599C103.513 74.7188 103.27 75.448 103.076 76.1771C102.883 76.9062 102.694 77.5659 102.551 78.1959C102.425 78.7108 102.357 79.2382 102.347 79.7682C102.352 79.7967 102.35 79.8259 102.341 79.8535C102.333 79.8811 102.318 79.9062 102.298 79.9269C102.26 79.9611 102.227 79.9994 102.198 80.041L102.536 79.9864C103.477 79.4668 104.318 78.7812 105.016 77.9627C105.814 77.0419 106.543 76.0638 107.198 75.0363C107.9 73.9354 108.546 72.7998 109.133 71.6336C109.731 70.4432 110.3 69.2991 110.839 68.2012C111.017 67.962 111.171 67.7062 111.3 67.4374C111.399 67.2291 111.489 67.0059 111.583 66.7628C111.677 66.5198 111.91 66.5049 112.272 66.5198C112.647 66.5458 113.013 66.6452 113.349 66.8124C113.687 66.9691 113.989 67.1937 114.236 67.4721C114.348 67.5658 114.422 67.6964 114.446 67.8401C114.47 67.9838 114.441 68.1313 114.365 68.2558L113.304 70.3837V70.4333C112.252 72.5265 111.136 74.608 109.956 76.6781C108.793 78.731 107.412 80.6533 105.839 82.4119C105.202 83.2048 104.472 83.9191 103.667 84.5398C103.173 84.9043 102.644 85.2199 102.089 85.4822C101.516 85.7577 100.901 85.9338 100.269 86.003C98.7279 86.1287 97.5706 85.7666 96.7968 84.9168C95.9701 83.9493 95.5178 82.7173 95.522 81.4447C94.384 82.9333 93.1248 84.3252 91.7573 85.6062C90.6703 86.6989 89.2935 87.4579 87.7893 87.7936C86.7424 87.9023 85.6863 87.7114 84.7438 87.2431C83.976 86.8387 83.32 86.2508 82.8341 85.5318C82.3545 84.8197 82.0176 84.0212 81.8421 83.1807C81.6558 82.3659 81.5445 81.5358 81.5098 80.7007C81.5116 80.1025 81.5614 79.5053 81.6586 78.9151C81.8196 77.5147 82.1323 76.136 82.5911 74.8031C83.1218 73.2192 83.7666 71.6759 84.5205 70.1853C85.3174 68.5967 86.2154 67.0609 87.2089 65.5873C88.1869 64.1207 89.2941 62.7446 90.5173 61.4754C91.6449 60.2921 92.9086 59.2465 94.282 58.3604C95.5131 57.5577 96.8957 57.0158 98.3443 56.7682C98.7442 56.6999 99.149 56.6651 99.5546 56.6641C99.9841 56.6675 100.413 56.6957 100.839 56.7484C101.567 56.8433 102.244 57.1683 102.774 57.6759C103.276 58.1932 103.662 58.8122 103.905 59.4913C104.177 60.252 104.356 61.0432 104.435 61.8474C104.509 62.7003 104.516 63.5577 104.455 64.4117ZM98.8899 65.3294C99.2129 65.1097 99.6023 65.0097 99.9911 65.0466C100.468 65.0798 100.938 65.1835 101.385 65.3542C101.302 65.3029 101.237 65.2285 101.196 65.1404C101.156 65.0522 101.142 64.9541 101.157 64.8581C101.171 64.7449 101.161 64.6299 101.127 64.5209C101.087 64.3961 101.071 64.2646 101.082 64.134C101.082 63.8165 101.023 63.4792 100.968 63.1419C100.917 62.8092 100.815 62.4863 100.666 62.1846C100.53 61.9151 100.325 61.6871 100.07 61.525C99.7771 61.3639 99.4403 61.2996 99.1082 61.3414C97.7986 61.5697 96.6009 62.2235 95.7006 63.2015C94.5361 64.3703 93.5199 65.678 92.6749 67.0951C90.9306 69.9978 89.5953 73.1274 88.7069 76.3953C88.5893 76.8521 88.5015 77.316 88.444 77.7842C88.3713 78.3149 88.3447 78.8509 88.3646 79.3863C88.3603 79.7183 88.3835 80.0501 88.4341 80.3783C88.4708 80.6658 88.5936 80.9355 88.7862 81.1521C88.8766 81.2509 88.986 81.3304 89.1079 81.3858C89.2298 81.4412 89.3617 81.4714 89.4955 81.4745C89.9039 81.467 90.3054 81.3687 90.6711 81.1868C91.2991 80.8349 91.8519 80.363 92.298 79.798C92.9296 79.0738 93.5909 78.2471 94.282 77.3179C94.9566 76.3805 95.6113 75.3835 96.2363 74.3419C96.8613 73.3002 97.387 72.3578 97.8087 71.5444C98.1261 70.5127 98.4088 69.5157 98.6568 68.5683C98.8738 67.7669 99.0248 66.949 99.1082 66.123L98.8899 65.3294Z" fill="#C12026"/>
<path d="M106.761 77.5261C106.806 76.1012 107.103 74.6955 107.639 73.3745C108.132 72.0781 108.884 70.8965 109.851 69.9024L110.903 67.968C111.73 66.265 112.584 64.5769 113.467 62.9037C114.35 61.2305 115.279 59.5953 116.255 57.9982C116.454 57.7195 116.635 57.4278 116.795 57.1252C116.939 56.8425 117.108 56.5498 117.291 56.2621C117.811 55.2966 118.429 54.25 119.147 53.1224C120.083 51.7002 121.128 50.3521 122.271 49.0898C122.767 49.2734 123.353 49.5412 124.062 49.8934C124.735 50.2208 125.357 50.6453 125.907 51.1532C126.391 51.588 126.746 52.1474 126.934 52.7702C127.001 53.0949 126.976 53.4318 126.863 53.7435C126.75 54.0551 126.553 54.3295 126.294 54.536L126.428 54.4666C126.015 54.939 125.631 55.4359 125.277 55.9546C125.059 56.3068 124.826 56.7086 124.578 57.1698L123.968 58.2511C123.339 59.4526 122.901 60.7444 122.668 62.0803C122.449 63.3457 122.325 64.6257 122.296 65.9095C122.296 66.599 122.296 67.2835 122.341 67.9779C122.386 68.6723 122.44 69.3717 122.495 70.081L122.634 72.9876C122.686 74.3825 122.501 75.7762 122.088 77.1094C121.709 78.3391 121.111 79.4901 120.322 80.5071C119.571 81.4674 118.643 82.2755 117.589 82.888C116.525 83.5069 115.342 83.8909 114.117 84.0139C113.017 84.139 111.904 84.0394 110.843 83.7213C109.985 83.4592 109.198 83.0045 108.542 82.3919C107.937 81.7952 107.474 81.0695 107.188 80.269C106.888 79.3863 106.744 78.4582 106.761 77.5261ZM115.923 66.976C115.908 66.7067 115.908 66.4368 115.923 66.1675C115.923 65.8897 115.962 65.6169 115.982 65.354L114.42 68.3301L114.38 68.3846C114.54 68.8015 114.675 69.2271 114.787 69.6594C114.962 70.2965 115.084 70.9467 115.154 71.6037C115.236 72.2617 115.256 72.926 115.213 73.5878C115.217 74.1203 115.054 74.6405 114.747 75.0758C114.65 74.8649 114.496 74.6853 114.302 74.5574C114.108 74.4294 113.883 74.3581 113.651 74.3516C113.168 74.3535 112.698 74.5061 112.307 74.7881C111.859 75.0932 111.474 75.4803 111.171 75.9289C110.888 76.3189 110.717 76.7784 110.675 77.2582C110.675 77.4604 110.706 77.6612 110.769 77.8535C110.838 78.0813 110.924 78.3035 111.027 78.5181C111.298 78.9658 111.718 79.3045 112.212 79.4754C112.665 79.6355 113.141 79.7144 113.621 79.7085C114.075 79.7051 114.515 79.5458 114.866 79.2572C115.224 78.9587 115.522 78.5952 115.744 78.1858C115.991 77.7273 116.173 77.2364 116.285 76.7275C116.409 76.1706 116.472 75.6018 116.473 75.0312C116.414 73.8705 116.309 72.6454 116.161 71.3706C116.116 70.6911 116.056 69.9917 115.982 69.2526C115.91 68.496 115.89 67.7353 115.923 66.976Z" fill="#C12026"/>
<path d="M68.8167 42.6621L66.2472 42.8754V55.6336L62.0408 55.9858V43.2326L59.4961 43.4459L60.1856 40.5788L68.1222 39.9141L68.8167 42.6621Z" fill="#3352A2"/>
<path d="M80.1102 54.4721L75.9088 54.8243V46.595L74.4206 46.7239V54.9532L70.2539 55.3005V39.7347L74.4008 39.4024V43.8667L75.8889 43.7378V39.2536L80.0953 38.9014L80.1102 54.4721Z" fill="#3352A2"/>
<path d="M85.7299 54.0014L81.5234 54.3536V38.7829L85.7299 38.4307V54.0014Z" fill="#3352A2"/>
<path d="M95.7887 40.3945L91.6567 40.7368V43.8668L93.8492 43.6833C94.0296 43.6695 94.2109 43.6932 94.3816 43.753C94.5524 43.8128 94.7089 43.9073 94.8413 44.0305C94.9796 44.1426 95.0913 44.2839 95.1685 44.4443C95.2457 44.6046 95.2864 44.7801 95.2877 44.9581V51.8035C95.275 52.18 95.1147 52.5364 94.8413 52.7956C94.5841 53.079 94.2302 53.2559 93.8492 53.2916L87.8025 53.7876L87.1328 51.0297L91.1011 50.6973V46.6893L88.9086 46.8728C88.7272 46.8902 88.5441 46.8672 88.3726 46.8054C88.201 46.7437 88.0453 46.6447 87.9166 46.5157C87.7815 46.4004 87.6727 46.2575 87.5974 46.0966C87.5221 45.9358 87.4821 45.7607 87.48 45.5831V39.6306C87.4957 39.2568 87.6515 38.9026 87.9166 38.6386C88.171 38.3515 88.5264 38.1738 88.9086 38.1425L95.1389 37.6465L95.7887 40.3945Z" fill="#3352A2"/>
<path d="M106.34 52.3006L102.139 52.6528V37.0573L106.345 36.7051L106.34 52.3006Z" fill="#3352A2"/>
<path d="M116.399 38.6738L112.272 39.016V42.1411L114.464 41.9576C114.645 41.9435 114.827 41.9676 114.998 42.0283C115.169 42.0889 115.325 42.1848 115.457 42.3097C115.595 42.4206 115.707 42.5609 115.784 42.7206C115.861 42.8802 115.902 43.055 115.903 43.2324V50.0728C115.892 50.4486 115.733 50.8048 115.461 51.0649C115.205 51.3486 114.851 51.5257 114.469 51.5609L108.423 52.0569L107.748 49.3238L111.716 48.9914V44.9884L109.524 45.1719C109.343 45.1872 109.16 45.1633 108.989 45.1016C108.818 45.04 108.662 44.9421 108.532 44.8147C108.4 44.6952 108.296 44.5486 108.227 44.3851C108.158 44.2215 108.125 44.0449 108.13 43.8673V37.9148C108.141 37.54 108.298 37.1842 108.567 36.9227C108.821 36.6357 109.176 36.458 109.559 36.4267L115.744 35.9307L116.399 38.6738Z" fill="#3352A2"/>
<path d="M32.8268 9.50781L33.6502 24.9139L43.1934 20.6333L35.9517 27.5477L50.5988 33.1427L35.788 31.3372L41.7103 41.6988L32.8268 33.3064L30.0293 49.4366L28.8786 31.9919L18.3433 37.2596L26.5721 29.4722L11.1016 23.6143L27.2268 25.7373L21.3045 14.5473L29.8607 23.6143L32.8268 9.50781Z" fill="#F9EDD8"/>
<path d="M29.474 59.8783L27.7776 33.9469L11.4093 42.1162L24.3055 29.9342L0.685547 21.006L25.0297 24.2152L15.9329 7.0483L29.1367 21.0507L33.5611 0L34.7912 23.0347L49.2647 16.5518L38.2285 27.0921L60.5143 35.6036L38.0896 32.8656L46.9335 48.3312L33.6553 35.797L29.474 59.8783ZM29.97 30.0483L30.5602 38.9765L31.9986 30.822L36.4627 35.0629L33.4867 29.8052L40.6739 30.6832L33.6752 27.9948L37.1472 24.7013L32.5294 26.7746L32.0929 19.0319L30.6049 26.1893L26.6765 22.0427L29.4492 27.2805L21.513 26.2389L28.844 29.0116L25.2976 32.4043L29.97 30.0483Z" fill="#F9EDD8"/>
<path d="M32.8268 9.50781L33.6502 24.9139L43.1934 20.6333L35.9517 27.5477L50.5988 33.1427L35.788 31.3372L41.7103 41.6988L32.8268 33.3064L30.0293 43.0133L28.8786 31.9919L18.3433 37.2596L26.5721 29.4722L11.1016 23.6143L27.2268 25.7373L21.3045 14.5473L29.8607 23.6143L32.8268 9.50781Z" fill="#C12026"/>
</svg>
