<svg width="64" height="64" viewBox="0 0 64 64" fill="none" xmlns="http://www.w3.org/2000/svg">
<g clip-path="url(#clip0_1457_93389)">
<g style="mix-blend-mode:multiply">
<path d="M52.4465 61.9221C52.4465 63.0682 43.372 64.0002 32.1816 64.0002C20.9912 64.0002 11.9167 63.0682 11.9167 61.9221C11.9167 60.776 20.9912 59.844 32.1816 59.844C43.372 59.844 52.4465 60.776 52.4465 61.9221Z" fill="#E6E6E6"/>
</g>
<g style="mix-blend-mode:multiply">
<path d="M45.0904 61.519C45.0904 62.2495 39.3094 62.8414 32.1808 62.8414C25.0522 62.8414 19.2712 62.2495 19.2712 61.519C19.2712 60.7885 25.0522 60.1965 32.1808 60.1965C39.3094 60.1965 45.0904 60.7885 45.0904 61.519Z" fill="#999999"/>
</g>
<path d="M25.1384 11.476C26.8315 9.53325 31.2576 4.12841 31.9995 6.10352e-05C32.7414 4.12841 37.1685 9.53325 38.8616 11.476C38.8235 9.32154 38.6396 7.16085 38.2148 5.18697C38.2148 5.18697 41.8038 12.2917 44.6954 21.3205C44.9616 21.7002 45.2282 22.0804 45.488 22.46C45.6212 20.0316 45.5895 17.5782 45.2407 15.3304C45.2407 15.3304 48.1259 21.9619 50.4405 30.5237C50.656 30.9285 50.859 31.3332 51.0555 31.7379C51.677 28.4564 51.677 25.9844 51.677 25.9844C54.8095 32.4665 54.0485 39.3035 53.5032 42.2114C53.4715 42.6037 53.4335 42.9959 53.3764 43.382C53.3066 43.8926 53.2179 44.3907 53.1101 44.8889C51.9179 50.5054 48.5001 55.3187 43.8013 58.3948C43.6111 58.5193 43.4208 58.6376 43.2306 58.7559C39.9586 60.7547 36.1212 61.9378 31.9995 62.0001C27.8778 61.9378 24.0414 60.7547 20.7694 58.7559C20.5792 58.6376 20.3889 58.5193 20.1987 58.3948C15.4999 55.3187 12.0821 50.5054 10.8899 44.8889C10.7821 44.3907 10.6934 43.8926 10.6236 43.382C10.5665 42.9959 10.5285 42.6037 10.4968 42.2114C9.95145 39.3035 9.19052 32.4665 12.323 25.9844C12.323 25.9844 12.323 28.4564 12.9445 31.7379C13.141 31.3332 13.3439 30.9285 13.5595 30.5237C15.8741 21.9619 18.7593 15.3304 18.7593 15.3304C18.4105 17.5782 18.3788 20.0316 18.512 22.46C18.7719 22.0802 19.0383 21.7004 19.3046 21.3205C22.1962 12.2917 25.7852 5.18697 25.7852 5.18697C25.3604 7.16085 25.1765 9.32154 25.1384 11.476Z" fill="#ED2D00"/>
<path opacity="0.6" d="M25.1384 11.476C26.8315 9.53325 31.2576 4.12841 31.9995 6.10352e-05C32.7414 4.12841 37.1685 9.53325 38.8616 11.476C38.8235 9.32154 38.6396 7.16085 38.2148 5.18697C38.2148 5.18697 41.8038 12.2917 44.6954 21.3205C44.9616 21.7002 45.2282 22.0804 45.488 22.46C45.6212 20.0316 45.5895 17.5782 45.2407 15.3304C45.2407 15.3304 48.1259 21.9619 50.4405 30.5237C50.656 30.9285 50.859 31.3332 51.0555 31.7379C51.677 28.4564 51.677 25.9844 51.677 25.9844C54.8095 32.4665 54.0485 39.3035 53.5032 42.2114C53.4715 42.6037 53.4335 42.9959 53.3764 43.382C53.3066 43.8926 53.2179 44.3907 53.1101 44.8889C51.9179 50.5054 48.5001 55.3187 43.8013 58.3948C43.6111 58.5193 43.4208 58.6376 43.2306 58.7559C39.9586 60.7547 36.1212 61.9378 31.9995 62.0001C27.8778 61.9378 24.0414 60.7547 20.7694 58.7559C20.5792 58.6376 20.3889 58.5193 20.1987 58.3948C15.4999 55.3187 12.0821 50.5054 10.8899 44.8889C10.7821 44.3907 10.6934 43.8926 10.6236 43.382C10.5665 42.9959 10.5285 42.6037 10.4968 42.2114C9.95145 39.3035 9.19052 32.4665 12.323 25.9844C12.323 25.9844 12.323 28.4564 12.9445 31.7379C13.141 31.3332 13.3439 30.9285 13.5595 30.5237C15.8741 21.9619 18.7593 15.3304 18.7593 15.3304C18.4105 17.5782 18.3788 20.0316 18.512 22.46C18.7719 22.0802 19.0383 21.7004 19.3046 21.3205C22.1962 12.2917 25.7852 5.18697 25.7852 5.18697C25.3604 7.16085 25.1765 9.32154 25.1384 11.476Z" fill="url(#paint0_radial_1457_93389)"/>
<path d="M50.329 35.5606C49.8781 36.5832 49.4207 37.6057 48.9633 38.6283C48.4144 34.5657 47.8655 30.4962 47.3232 26.4336C46.8527 27.5184 46.3822 28.6031 45.9183 29.6878C44.1082 25.1209 42.2917 20.5471 40.4817 15.9801C40.6516 17.1754 40.828 18.3707 40.9979 19.559C37.221 16.4914 34.1433 12.4979 32 8.00006C29.8567 12.4979 26.7725 16.4914 23.0021 19.559C23.172 18.3638 23.3485 17.1685 23.5183 15.9801C21.7083 20.5471 19.8918 25.1209 18.0817 29.6878C17.6112 28.6031 17.1408 27.5115 16.6768 26.4336C16.1279 30.4962 15.579 34.5657 15.0367 38.6283C14.5858 37.6057 14.1284 36.5832 13.671 35.5606C12.0243 41.8065 13.4619 48.8607 17.3956 53.8353C20.9569 58.3331 26.4654 60.9932 32 61.0001C37.5346 60.9932 43.0497 58.3331 46.6044 53.8353C50.5381 48.8607 51.9757 41.7996 50.329 35.5606Z" fill="url(#paint1_radial_1457_93389)"/>
<path opacity="0.4" d="M50.329 35.5606C49.8781 36.5832 49.4207 37.6057 48.9633 38.6283C48.4144 34.5657 47.8655 30.4962 47.3232 26.4336C46.8527 27.5184 46.3822 28.6031 45.9183 29.6878C44.1082 25.1209 42.2917 20.5471 40.4817 15.9801C40.6516 17.1754 40.828 18.3707 40.9979 19.559C37.221 16.4914 34.1433 12.4979 32 8.00006C29.8567 12.4979 26.7725 16.4914 23.0021 19.559C23.172 18.3638 23.3485 17.1685 23.5183 15.9801C21.7083 20.5471 19.8918 25.1209 18.0817 29.6878C17.6112 28.6031 17.1408 27.5115 16.6768 26.4336C16.1279 30.4962 15.579 34.5657 15.0367 38.6283C14.5858 37.6057 14.1284 36.5832 13.671 35.5606C12.0243 41.8065 13.4619 48.8607 17.3956 53.8353C20.9569 58.3331 26.4654 60.9932 32 61.0001C37.5346 60.9932 43.0497 58.3331 46.6044 53.8353C50.5381 48.8607 51.9757 41.7996 50.329 35.5606Z" fill="#F99406"/>
<path d="M47.0205 40.01C47.0205 43.33 44.3305 46.02 41.0105 46.02C37.6905 46.02 35.0005 43.33 35.0005 40.01C35.0005 36.69 37.6905 34 41.0105 34C44.3305 34 47.0205 36.69 47.0205 40.01Z" fill="white"/>
<path d="M29.0205 40.01C29.0205 43.33 26.3305 46.02 23.0105 46.02C19.6905 46.02 17.0005 43.33 17.0005 40.01C17.0005 36.69 19.6905 34 23.0105 34C26.3305 34 29.0205 36.69 29.0205 40.01Z" fill="white"/>
<path d="M26.2808 40.0199C26.2808 41.9299 24.7308 43.4899 22.8108 43.4899C20.8908 43.4899 19.3408 41.9399 19.3408 40.0199C19.3408 38.0999 20.8908 36.5499 22.8108 36.5499C24.7308 36.5499 26.2808 38.0999 26.2808 40.0199Z" fill="#282828"/>
<g style="mix-blend-mode:overlay">
<path d="M23.5708 39.6399C23.5708 40.6799 22.7308 41.5199 21.6908 41.5199C20.6508 41.5199 19.8108 40.6799 19.8108 39.6399C19.8108 38.5999 20.6508 37.7599 21.6908 37.7599C22.7308 37.7599 23.5708 38.5999 23.5708 39.6399Z" fill="#C9C9C9"/>
</g>
<g style="mix-blend-mode:multiply">
<path d="M22.8208 36.5499C20.9108 36.5499 19.3608 38.0999 19.3608 40.0199C19.3608 41.9399 20.9108 43.4799 22.8208 43.4799C24.7308 43.4799 26.2908 41.9299 26.2908 40.0199C26.2908 38.1099 24.7408 36.5499 22.8208 36.5499ZM22.0708 42.1299C20.7008 42.1299 19.5909 41.0199 19.5909 39.6499C19.5909 38.2799 20.7008 37.1699 22.0708 37.1699C23.4408 37.1699 24.5508 38.2799 24.5508 39.6499C24.5508 41.0199 23.4408 42.1299 22.0708 42.1299Z" fill="black"/>
</g>
<path d="M22.5808 39.2699C22.5808 39.8299 22.1208 40.2899 21.5608 40.2899C21.0008 40.2899 20.5408 39.8299 20.5408 39.2699C20.5408 38.7099 21.0008 38.2499 21.5608 38.2499C22.1208 38.2499 22.5808 38.7099 22.5808 39.2699Z" fill="white"/>
<path d="M24.7207 42.0699C24.7207 42.3999 24.4508 42.6699 24.1208 42.6699C23.7908 42.6699 23.5208 42.3999 23.5208 42.0699C23.5208 41.7399 23.7908 41.4699 24.1208 41.4699C24.4508 41.4699 24.7207 41.7399 24.7207 42.0699Z" fill="white"/>
<g style="mix-blend-mode:screen" opacity="0.3">
<path d="M21.4208 41.7299C20.8408 41.6599 20.4008 41.4199 20.4308 41.1899C20.4608 40.9599 20.9408 40.8299 21.5208 40.8899C22.1008 40.9599 22.5408 41.1999 22.5208 41.4299C22.4908 41.6599 22.0108 41.7899 21.4308 41.7299H21.4208Z" fill="#BFBFBF"/>
</g>
<path d="M44.6607 40.0199C44.6607 41.9299 43.1107 43.4899 41.1907 43.4899C39.2707 43.4899 37.7207 41.9399 37.7207 40.0199C37.7207 38.0999 39.2707 36.5499 41.1907 36.5499C43.1107 36.5499 44.6607 38.0999 44.6607 40.0199Z" fill="#282828"/>
<g style="mix-blend-mode:overlay">
<path d="M40.0807 41.5199C41.119 41.5199 41.9607 40.6782 41.9607 39.6399C41.9607 38.6016 41.119 37.7599 40.0807 37.7599C39.0424 37.7599 38.2007 38.6016 38.2007 39.6399C38.2007 40.6782 39.0424 41.5199 40.0807 41.5199Z" fill="#C9C9C9"/>
</g>
<g style="mix-blend-mode:multiply">
<path d="M41.1907 36.5499C39.2807 36.5499 37.7307 38.0999 37.7307 40.0199C37.7307 41.9399 39.2807 43.4799 41.1907 43.4799C43.1007 43.4799 44.6607 41.9299 44.6607 40.0199C44.6607 38.1099 43.1107 36.5499 41.1907 36.5499ZM40.4407 42.1299C39.0707 42.1299 37.9607 41.0199 37.9607 39.6499C37.9607 38.2799 39.0707 37.1699 40.4407 37.1699C41.8107 37.1699 42.9207 38.2799 42.9207 39.6499C42.9207 41.0199 41.8107 42.1299 40.4407 42.1299Z" fill="black"/>
</g>
<path d="M40.9607 39.2699C40.9607 39.8299 40.5007 40.2899 39.9407 40.2899C39.3807 40.2899 38.9207 39.8299 38.9207 39.2699C38.9207 38.7099 39.3807 38.2499 39.9407 38.2499C40.5007 38.2499 40.9607 38.7099 40.9607 39.2699Z" fill="white"/>
<path d="M43.1008 42.0699C43.1008 42.3999 42.8307 42.6699 42.5007 42.6699C42.1707 42.6699 41.9008 42.3999 41.9008 42.0699C41.9008 41.7399 42.1707 41.4699 42.5007 41.4699C42.8307 41.4699 43.1008 41.7399 43.1008 42.0699Z" fill="white"/>
<g style="mix-blend-mode:screen" opacity="0.3">
<path d="M39.8005 41.7297C39.2205 41.6597 38.7805 41.4197 38.8005 41.1897C38.8305 40.9597 39.3105 40.8297 39.8905 40.8897C40.4705 40.9597 40.9105 41.1997 40.8905 41.4297C40.8605 41.6597 40.3805 41.7897 39.8005 41.7297Z" fill="#BFBFBF"/>
</g>
<g style="mix-blend-mode:multiply">
<path d="M45.261 30.8984C45.2871 31.147 45.2106 31.3763 45.0682 31.5521C44.9258 31.7279 44.7074 31.8514 44.4688 31.8764L38.4717 32.5059C38.4717 32.5059 38.422 32.5111 38.4021 32.5132C37.9404 32.5214 37.5427 32.1811 37.4937 31.7136C37.4676 31.465 37.5441 31.2358 37.6865 31.0599C37.8289 30.8841 38.0472 30.7606 38.2859 30.7356L44.283 30.1062C44.7692 30.0451 45.2187 30.4001 45.2699 30.8874L45.261 30.8984Z" fill="#C9B3A9"/>
</g>
<path d="M44.7772 30.5068C44.8033 30.7554 44.7268 30.9847 44.5844 31.1605C44.442 31.3363 44.2237 31.4597 43.985 31.4848L37.9879 32.1142C37.9879 32.1142 37.9382 32.1195 37.9183 32.1215C37.4567 32.1298 37.059 31.7894 37.0099 31.322C36.9838 31.0734 37.0603 30.8441 37.2027 30.6683C37.3451 30.4925 37.5634 30.369 37.8021 30.344L43.7992 29.7145C44.2855 29.6534 44.735 30.0085 44.7862 30.4958L44.7772 30.5068Z" fill="#282828"/>
<path d="M44.757 30.4083C44.757 30.4083 44.7387 30.3298 44.7246 30.2911C44.7225 30.2712 44.7204 30.2513 44.6984 30.2335C44.6984 30.2335 44.6712 30.166 44.6592 30.1471C44.621 30.0707 44.564 30.0063 44.4981 29.9528L44.4531 29.9073C44.4531 29.9073 44.4201 29.8806 44.3992 29.8727C44.3882 29.8638 44.3672 29.856 44.3562 29.8471C44.3133 29.8214 44.2704 29.7958 44.2285 29.78C44.2076 29.7722 44.1757 29.7554 44.1448 29.7486C44.1139 29.7418 44.093 29.7339 44.0621 29.7271C44.0422 29.7292 44.0213 29.7214 43.9904 29.7146C43.9805 29.7156 43.9705 29.7166 43.9506 29.7187C43.9308 29.7208 43.9208 29.7219 43.9009 29.7239C43.891 29.725 43.8711 29.7271 43.8611 29.7281C43.8412 29.7302 43.8114 29.7333 43.7915 29.7354L37.7945 30.3649C37.7348 30.3711 37.6772 30.3973 37.6285 30.4124C37.6086 30.4145 37.5887 30.4166 37.5798 30.4276C37.5222 30.4537 37.4646 30.4799 37.4081 30.516C37.3882 30.5181 37.3704 30.5401 37.3516 30.5521L37.3317 30.5542C37.3317 30.5542 37.2961 30.5982 37.2772 30.6102C37.2594 30.6322 37.2406 30.6442 37.2228 30.6662C37.2228 30.6662 37.205 30.6881 37.195 30.6892C37.0526 30.865 36.9761 31.0943 37.0022 31.3429C37.0053 31.3727 37.0095 31.4125 37.0126 31.4423C37.0147 31.4622 37.0168 31.4821 37.0189 31.502C37.021 31.5219 37.0231 31.5418 37.0351 31.5606C37.0362 31.5706 37.0383 31.5905 37.0393 31.6004C37.0424 31.6303 37.0654 31.658 37.0785 31.6868C37.0806 31.7067 37.0916 31.7156 37.1036 31.7344C37.1057 31.7543 37.1266 31.7622 37.1387 31.781C37.1397 31.791 37.1507 31.7999 37.1628 31.8187C37.1858 31.8465 37.2198 31.8831 37.2528 31.9098C37.2637 31.9187 37.2747 31.9276 37.2967 31.9454C37.3517 31.9899 37.4056 32.0245 37.4595 32.0591C37.4804 32.0669 37.5013 32.0748 37.5123 32.0837C37.5322 32.0816 37.5542 32.0994 37.5652 32.1083L37.5751 32.1073C37.5751 32.1073 37.617 32.123 37.6379 32.1308L37.6578 32.1287C37.6777 32.1267 37.6986 32.1345 37.7096 32.1434C37.7604 32.1481 37.8112 32.1529 37.8619 32.1576C37.8918 32.1545 37.9117 32.1524 37.9415 32.1492L43.9386 31.5198C43.9386 31.5198 43.9873 31.5047 44.0071 31.5026L44.0967 31.4932C44.0967 31.4932 44.1631 31.456 44.1919 31.4429C44.1919 31.4429 44.2396 31.4178 44.2684 31.4048C44.2971 31.3917 44.326 31.3786 44.3438 31.3566C44.3626 31.3446 44.3903 31.3216 44.4092 31.3096C44.4558 31.2745 44.5013 31.2295 44.5369 31.1855C44.6794 31.0097 44.7548 30.7705 44.7297 30.5318C44.7266 30.502 44.7224 30.4622 44.7193 30.4324L44.757 30.4083ZM43.3238 30.7397C43.2615 30.8166 43.1662 30.8669 43.0568 30.8784L38.2233 31.3857C38.0045 31.4086 37.8177 31.2573 37.7958 31.0484C37.7937 31.0286 37.7927 31.0186 37.7906 30.9987C37.7885 30.9788 37.7875 30.9689 37.7953 30.9479C37.8079 30.8762 37.8315 30.8135 37.877 30.7685C37.9393 30.6915 38.0336 30.6313 38.143 30.6199L42.9764 30.1125C43.0958 30.1 43.2104 30.1383 43.2883 30.2105C43.3553 30.2739 43.3945 30.3603 43.4039 30.4498C43.4154 30.5592 43.3861 30.6628 43.3238 30.7397Z" fill="black"/>
<g style="mix-blend-mode:screen" opacity="0.6">
<path d="M39.8548 30.2592C40.2227 30.2206 40.5357 30.3285 40.5534 30.4976C40.5712 30.6667 40.2874 30.8372 39.9294 30.8748C39.5614 30.9134 39.2485 30.8055 39.2307 30.6364C39.213 30.4674 39.4967 30.2968 39.8647 30.2582L39.8548 30.2592Z" fill="#EDEEEF"/>
<path d="M40.9576 30.1334C41.1267 30.1157 41.2805 30.2403 41.2983 30.4094C41.316 30.5785 41.1914 30.7323 41.0223 30.7501C40.8532 30.7678 40.6994 30.6432 40.6817 30.4741C40.6639 30.305 40.7885 30.1512 40.9576 30.1334Z" fill="#EDEEEF"/>
</g>
<g style="mix-blend-mode:multiply">
<path d="M39.7382 52.3759C39.7382 52.8214 39.5618 53.2205 39.2741 53.5082C38.9864 53.7959 38.5873 53.9815 38.1419 53.9815L27.3762 54.0001C27.3762 54.0001 27.2834 54.0001 27.2463 54.0001C26.4296 53.9351 25.7799 53.2483 25.7799 52.4131C25.7799 51.9676 25.9562 51.5685 26.2439 51.2808C26.5316 50.9931 26.9307 50.8075 27.3762 50.8075L38.1419 50.7889C39.0235 50.7889 39.7382 51.5036 39.7382 52.3852V52.3759Z" fill="#F66B04"/>
</g>
<path d="M38.9587 51.587C38.9587 52.0325 38.7824 52.4315 38.4947 52.7193C38.207 53.007 37.8079 53.1926 37.3625 53.1926L26.5968 53.2111C26.5968 53.2111 26.504 53.2111 26.4669 53.2111C25.6502 53.1462 25.0005 52.4594 25.0005 51.6241C25.0005 51.1787 25.1768 50.7796 25.4645 50.4919C25.7522 50.2042 26.1513 50.0186 26.5968 50.0186L37.3625 50C38.2441 50 38.9587 50.7146 38.9587 51.5963V51.587Z" fill="#282828"/>
<path d="M38.9402 51.4107C38.9402 51.3364 38.9216 51.2622 38.8938 51.1972C38.8938 51.1601 38.8752 51.123 38.8659 51.0858V51.0673C38.8381 51.0209 38.8195 50.9745 38.801 50.9281C38.736 50.7889 38.6525 50.6682 38.5597 50.5475L38.4854 50.464C38.4854 50.464 38.4297 50.4084 38.4019 50.3898C38.374 50.3712 38.3555 50.3434 38.3277 50.3248C38.2627 50.2691 38.1884 50.2227 38.1142 50.1856C38.0678 50.1578 38.0214 50.1392 37.975 50.1206C37.9286 50.1021 37.8822 50.0835 37.8265 50.065C37.7894 50.0557 37.743 50.0464 37.7058 50.0371C37.6873 50.0371 37.6594 50.0278 37.6409 50.0278C37.613 50.0278 37.5852 50.0186 37.5573 50.0186C37.5295 50.0186 37.5109 50.0186 37.4831 50.0093C37.4367 50.0093 37.3996 50.0093 37.3532 50.0093L26.5875 50.0278C26.4854 50.0278 26.3833 50.0371 26.2812 50.0557C26.2534 50.0557 26.2163 50.065 26.1884 50.0742C26.0771 50.1021 25.9657 50.1485 25.8636 50.1949C25.8265 50.2134 25.7894 50.232 25.7615 50.2598C25.7522 50.2598 25.743 50.2691 25.7337 50.2784C25.6966 50.3063 25.6594 50.3248 25.6223 50.362C25.5852 50.3898 25.5481 50.4269 25.5109 50.4547C25.4924 50.464 25.4831 50.4826 25.4645 50.5012C25.1768 50.7889 25.0005 51.1879 25.0005 51.6334C25.0005 51.6984 25.0005 51.754 25.0098 51.819C25.0098 51.8561 25.0098 51.884 25.0283 51.9211C25.0283 51.9582 25.0376 51.9954 25.0562 52.0325C25.0562 52.051 25.0655 52.0789 25.0748 52.0974C25.0933 52.1531 25.1119 52.1995 25.1304 52.2552C25.1397 52.283 25.1583 52.3202 25.1768 52.348C25.1954 52.3759 25.2047 52.413 25.2325 52.4408C25.2418 52.4594 25.2604 52.4872 25.2696 52.5058C25.3068 52.5708 25.3532 52.6265 25.4088 52.6821C25.4274 52.7007 25.4553 52.7285 25.4738 52.7471C25.5573 52.8306 25.6501 52.9049 25.7522 52.9698C25.7801 52.9884 25.8172 53.007 25.845 53.0255C25.8729 53.0441 25.91 53.0626 25.9379 53.0719C25.9379 53.0719 25.9471 53.0719 25.9564 53.0719C25.9842 53.0905 26.0214 53.0998 26.0585 53.1183C26.0678 53.1183 26.0863 53.1276 26.1049 53.1369C26.1327 53.1462 26.1699 53.1554 26.1977 53.1647C26.2905 53.1926 26.374 53.2018 26.4761 53.2111C26.5225 53.2111 26.5689 53.2111 26.6153 53.2111L37.381 53.1926C37.381 53.1926 37.4738 53.1926 37.5109 53.1926H37.5759C37.5759 53.1926 37.6409 53.174 37.6687 53.174C37.7244 53.1647 37.7894 53.1462 37.845 53.1276H37.8543C37.9007 53.109 37.9471 53.0905 37.9935 53.0719C38.0399 53.0534 38.0956 53.0255 38.1327 53.0069C38.1791 52.9791 38.2163 52.9605 38.2534 52.9327C38.3462 52.877 38.4205 52.8028 38.4947 52.7285C38.7824 52.4408 38.9587 52.0418 38.9587 51.5963C38.9587 51.5406 38.9587 51.4756 38.9495 51.4199L38.9402 51.4107ZM36.3323 51.7262C36.2023 51.8562 36.0353 51.9304 35.8404 51.9304H27.1722C26.7824 51.949 26.4761 51.6334 26.4761 51.2436C26.4761 51.2158 26.4761 51.1786 26.4761 51.1508C26.4761 51.1229 26.4854 51.0858 26.4947 51.058C26.5225 50.9374 26.5875 50.8353 26.671 50.7425C26.801 50.6125 26.9773 50.5383 27.1629 50.5383L35.8311 50.5197C36.0446 50.5197 36.2395 50.6125 36.3694 50.7703C36.4715 50.891 36.5365 51.0487 36.5365 51.2158C36.5365 51.4107 36.4622 51.587 36.3323 51.7169V51.7262Z" fill="black"/>
<g style="mix-blend-mode:screen" opacity="0.6">
<path d="M30.2722 50.2321C30.9311 50.2321 31.4601 50.4734 31.4601 50.7796C31.4601 51.0859 30.9311 51.3272 30.2722 51.3272C29.6132 51.3272 29.0842 51.0859 29.0842 50.7796C29.0842 50.4734 29.6132 50.2321 30.2722 50.2321Z" fill="#EDEEEF"/>
<path d="M32.2486 50.2228C32.5549 50.2228 32.8055 50.4734 32.8055 50.7796C32.8055 51.0859 32.5549 51.3365 32.2486 51.3365C31.9424 51.3365 31.6918 51.0859 31.6918 50.7796C31.6918 50.4734 31.9424 50.2228 32.2486 50.2228Z" fill="#EDEEEF"/>
</g>
<g style="mix-blend-mode:multiply">
<path d="M18.9218 33.573C18.9068 33.8225 18.9836 34.0475 19.1431 34.2274C19.2933 34.3966 19.5063 34.5195 19.7559 34.5345L25.771 34.964C25.771 34.964 25.8209 34.967 25.8408 34.9682C26.3018 34.9657 26.6839 34.6078 26.7219 34.1393C26.7368 33.8897 26.6501 33.6641 26.5005 33.4849C26.3503 33.3156 26.1373 33.1927 25.8877 33.1778L19.8726 32.7483C19.3835 32.719 18.951 33.0839 18.9212 33.583L18.9218 33.573Z" fill="#C9B3A9"/>
</g>
<path d="M19.3972 33.1606C19.3823 33.4102 19.459 33.6352 19.6186 33.815C19.7688 33.9842 19.9818 34.1072 20.2314 34.1221L26.2465 34.5516C26.2465 34.5516 26.2964 34.5546 26.3163 34.5558C26.7773 34.5533 27.1593 34.1954 27.1973 33.7269C27.2123 33.4773 27.1256 33.2518 26.976 33.0725C26.8258 32.9033 26.6128 32.7803 26.3632 32.7654L20.3481 32.3359C19.859 32.3067 19.4264 32.6715 19.3966 33.1706L19.3972 33.1606Z" fill="#282828"/>
<path d="M19.3967 33.1607C19.3818 33.4102 19.4585 33.6352 19.6081 33.8144C19.6456 33.8567 19.6932 33.8997 19.7413 33.9326C19.7607 33.9438 19.7794 33.9649 19.8088 33.9767C19.8282 33.9878 19.8569 34.0096 19.8862 34.0214C19.9156 34.0331 19.935 34.0443 19.9643 34.0561C19.9643 34.0561 20.023 34.0796 20.0623 34.092L20.1522 34.0974C20.1522 34.0974 20.2009 34.1203 20.2209 34.1215L26.236 34.5511C26.236 34.5511 26.2859 34.554 26.3158 34.5558C26.3657 34.5588 26.4162 34.5518 26.4667 34.5448C26.4867 34.546 26.5067 34.5472 26.5178 34.5278L26.5378 34.529C26.5578 34.5302 26.5783 34.5214 26.5989 34.5126L26.6089 34.5132C26.6089 34.5132 26.65 34.4957 26.6606 34.4863C26.6712 34.4769 26.7017 34.4687 26.7123 34.4593C26.7746 34.423 26.8269 34.386 26.8692 34.3485C26.8798 34.3391 26.9003 34.3303 26.9115 34.3109C26.9432 34.2828 26.965 34.254 26.9973 34.2159C26.9979 34.2059 27.0185 34.1971 27.0197 34.1771C27.0308 34.1578 27.0414 34.1484 27.0526 34.129C27.0538 34.109 27.0743 34.1003 27.0755 34.0803C27.0873 34.051 27.0991 34.0216 27.1108 33.9923C27.1114 33.9823 27.1126 33.9623 27.1232 33.9529C27.1244 33.933 27.1356 33.9136 27.1368 33.8936C27.138 33.8737 27.1392 33.8537 27.1404 33.8337C27.1422 33.8038 27.1445 33.7638 27.1463 33.7339C27.1612 33.4843 27.0745 33.2588 26.925 33.0795C26.925 33.0795 26.9062 33.0584 26.8962 33.0578C26.8774 33.0366 26.8587 33.0155 26.8393 33.0043C26.8205 32.9831 26.8012 32.9719 26.7824 32.9508L26.7624 32.9496C26.7624 32.9496 26.7249 32.9073 26.7055 32.8961C26.6474 32.8626 26.5887 32.839 26.53 32.8155C26.51 32.8143 26.4907 32.8031 26.4807 32.8025C26.4214 32.789 26.3721 32.776 26.3122 32.7724L20.2971 32.3429C20.2971 32.3429 20.2472 32.3399 20.2272 32.3387C20.2173 32.3381 20.1973 32.3369 20.1873 32.3363C20.1673 32.3351 20.1573 32.3345 20.1374 32.3333C20.1274 32.3327 20.1174 32.3321 20.0975 32.331C20.0775 32.3298 20.0469 32.338 20.0264 32.3468C19.9964 32.345 19.9653 32.3631 19.9447 32.3719C19.9142 32.3801 19.8936 32.3889 19.8625 32.4071C19.8214 32.4246 19.7797 32.4522 19.7379 32.4798C19.7274 32.4892 19.7068 32.498 19.6962 32.5073C19.6757 32.5161 19.6645 32.5355 19.6439 32.5443L19.601 32.5918C19.5475 32.6487 19.4935 32.7156 19.4488 32.7931C19.437 32.8224 19.4258 32.8418 19.414 32.8712C19.414 32.8712 19.401 32.9205 19.3899 32.9399C19.3775 32.9792 19.3651 33.0185 19.3628 33.0584C19.361 33.0884 19.3586 33.1283 19.3568 33.1583L19.3967 33.1607ZM20.7556 33.0515C20.7616 32.9517 20.8063 32.8742 20.8704 32.8079C20.9456 32.7223 21.0584 32.6789 21.1782 32.6861L26.0266 33.0258C26.1364 33.0324 26.2332 33.0883 26.2989 33.1623C26.3458 33.2152 26.3722 33.2769 26.388 33.348C26.3868 33.368 26.3862 33.3779 26.395 33.3985C26.3938 33.4184 26.3932 33.4284 26.392 33.4484C26.3789 33.668 26.1891 33.827 25.9695 33.8138L21.1211 33.4741C21.0113 33.4675 20.9145 33.4116 20.8488 33.3376C20.7831 33.2635 20.7491 33.1613 20.7556 33.0515Z" fill="black"/>
<g style="mix-blend-mode:screen" opacity="0.6">
<path d="M24.3013 32.7423C23.9319 32.7202 23.6247 32.8321 23.6146 33.0018C23.6044 33.1715 23.8855 33.3286 24.2549 33.3506C24.6242 33.3727 24.9315 33.2608 24.9416 33.0911C24.9517 32.9214 24.6706 32.7644 24.3013 32.7423Z" fill="#EDEEEF"/>
<path d="M23.1938 32.6661C23.0241 32.656 22.876 32.7874 22.8659 32.9571C22.8558 33.1268 22.9872 33.2749 23.1569 33.285C23.3266 33.2952 23.4747 33.1638 23.4848 32.9941C23.4949 32.8244 23.3635 32.6763 23.1938 32.6661Z" fill="#EDEEEF"/>
</g>
</g>
<defs>
<radialGradient id="paint0_radial_1457_93389" cx="0" cy="0" r="1" gradientUnits="userSpaceOnUse" gradientTransform="translate(32.1529 32.1358) rotate(90) scale(49.934 35.437)">
<stop stop-color="#F99406"/>
<stop offset="0.476332" stop-color="#F66B04"/>
<stop offset="1" stop-color="#ED2D00"/>
</radialGradient>
<radialGradient id="paint1_radial_1457_93389" cx="0" cy="0" r="1" gradientUnits="userSpaceOnUse" gradientTransform="translate(32.132 35.4709) rotate(90) scale(42.6855 30.6047)">
<stop stop-color="#F99406"/>
<stop offset="0.476332" stop-color="#F66B04"/>
<stop offset="1" stop-color="#ED2D00"/>
</radialGradient>
<clipPath id="clip0_1457_93389">
<rect width="64" height="64" fill="white"/>
</clipPath>
</defs>
</svg>
