<svg width="64" height="64" viewBox="0 0 64 64" fill="none" xmlns="http://www.w3.org/2000/svg">
<g clip-path="url(#clip0_1457_93438)">
<g style="mix-blend-mode:multiply">
<path d="M52.4465 61.9221C52.4465 63.0682 43.372 64.0002 32.1816 64.0002C20.9912 64.0002 11.9167 63.0682 11.9167 61.9221C11.9167 60.776 20.9912 59.844 32.1816 59.844C43.372 59.844 52.4465 60.776 52.4465 61.9221Z" fill="#E6E6E6"/>
</g>
<g style="mix-blend-mode:multiply">
<path d="M45.0904 61.519C45.0904 62.2495 39.3094 62.8414 32.1808 62.8414C25.0522 62.8414 19.2712 62.2495 19.2712 61.519C19.2712 60.7885 25.0522 60.1965 32.1808 60.1965C39.3094 60.1965 45.0904 60.7885 45.0904 61.519Z" fill="#999999"/>
</g>
<path d="M25.1384 11.476C26.8315 9.53325 31.2576 4.12841 31.9995 6.10352e-05C32.7414 4.12841 37.1685 9.53325 38.8616 11.476C38.8235 9.32154 38.6396 7.16085 38.2148 5.18697C38.2148 5.18697 41.8038 12.2917 44.6954 21.3205C44.9616 21.7002 45.2282 22.0804 45.488 22.46C45.6212 20.0316 45.5895 17.5782 45.2407 15.3304C45.2407 15.3304 48.1259 21.9619 50.4405 30.5237C50.656 30.9285 50.859 31.3332 51.0555 31.7379C51.677 28.4564 51.677 25.9844 51.677 25.9844C54.8095 32.4665 54.0485 39.3035 53.5032 42.2114C53.4715 42.6037 53.4335 42.9959 53.3764 43.382C53.3066 43.8926 53.2179 44.3907 53.1101 44.8889C51.9179 50.5054 48.5001 55.3187 43.8013 58.3948C43.6111 58.5193 43.4208 58.6376 43.2306 58.7559C39.9586 60.7547 36.1212 61.9378 31.9995 62.0001C27.8778 61.9378 24.0414 60.7547 20.7694 58.7559C20.5792 58.6376 20.3889 58.5193 20.1987 58.3948C15.4999 55.3187 12.0821 50.5054 10.8899 44.8889C10.7821 44.3907 10.6934 43.8926 10.6236 43.382C10.5665 42.9959 10.5285 42.6037 10.4968 42.2114C9.95145 39.3035 9.19052 32.4665 12.323 25.9844C12.323 25.9844 12.323 28.4564 12.9445 31.7379C13.141 31.3332 13.3439 30.9285 13.5595 30.5237C15.8741 21.9619 18.7593 15.3304 18.7593 15.3304C18.4105 17.5782 18.3788 20.0316 18.512 22.46C18.7719 22.0802 19.0383 21.7004 19.3046 21.3205C22.1962 12.2917 25.7852 5.18697 25.7852 5.18697C25.3604 7.16085 25.1765 9.32154 25.1384 11.476Z" fill="url(#paint0_radial_1457_93438)"/>
<path d="M50.329 35.5606C49.8781 36.5832 49.4207 37.6057 48.9633 38.6283C48.4144 34.5657 47.8655 30.4962 47.3232 26.4336C46.8527 27.5184 46.3822 28.6031 45.9183 29.6878C44.1082 25.1209 42.2917 20.5471 40.4817 15.9801C40.6516 17.1754 40.828 18.3707 40.9979 19.559C37.221 16.4914 34.1433 12.4979 32 8.00006C29.8567 12.4979 26.7725 16.4914 23.0021 19.559C23.172 18.3638 23.3485 17.1685 23.5183 15.9801C21.7083 20.5471 19.8918 25.1209 18.0817 29.6878C17.6112 28.6031 17.1408 27.5115 16.6768 26.4336C16.1279 30.4962 15.579 34.5657 15.0367 38.6283C14.5858 37.6057 14.1284 36.5832 13.671 35.5606C12.0243 41.8065 13.4619 48.8607 17.3956 53.8353C20.9569 58.3331 26.4654 60.9932 32 61.0001C37.5346 60.9932 43.0497 58.3331 46.6044 53.8353C50.5381 48.8607 51.9757 41.7996 50.329 35.5606Z" fill="url(#paint1_radial_1457_93438)"/>
<path opacity="0.8" d="M50.329 35.5606C49.8781 36.5832 49.4207 37.6057 48.9633 38.6283C48.4144 34.5657 47.8655 30.4962 47.3232 26.4336C46.8527 27.5184 46.3822 28.6031 45.9183 29.6878C44.1082 25.1209 42.2917 20.5471 40.4817 15.9801C40.6516 17.1754 40.828 18.3707 40.9979 19.559C37.221 16.4914 34.1433 12.4979 32 8.00006C29.8567 12.4979 26.7725 16.4914 23.0021 19.559C23.172 18.3638 23.3485 17.1685 23.5183 15.9801C21.7083 20.5471 19.8918 25.1209 18.0817 29.6878C17.6112 28.6031 17.1408 27.5115 16.6768 26.4336C16.1279 30.4962 15.579 34.5657 15.0367 38.6283C14.5858 37.6057 14.1284 36.5832 13.671 35.5606C12.0243 41.8065 13.4619 48.8607 17.3956 53.8353C20.9569 58.3331 26.4654 60.9932 32 61.0001C37.5346 60.9932 43.0497 58.3331 46.6044 53.8353C50.5381 48.8607 51.9757 41.7996 50.329 35.5606Z" fill="#F99406"/>
<path d="M47.0205 40.01C47.0205 43.33 44.3305 46.02 41.0105 46.02C37.6905 46.02 35.0005 43.33 35.0005 40.01C35.0005 36.69 37.6905 34 41.0105 34C44.3305 34 47.0205 36.69 47.0205 40.01Z" fill="white"/>
<path d="M29.0205 40.01C29.0205 43.33 26.3305 46.02 23.0105 46.02C19.6905 46.02 17.0005 43.33 17.0005 40.01C17.0005 36.69 19.6905 34 23.0105 34C26.3305 34 29.0205 36.69 29.0205 40.01Z" fill="white"/>
<path d="M26.2808 40.0199C26.2808 41.9299 24.7308 43.4899 22.8108 43.4899C20.8908 43.4899 19.3408 41.9399 19.3408 40.0199C19.3408 38.0999 20.8908 36.5499 22.8108 36.5499C24.7308 36.5499 26.2808 38.0999 26.2808 40.0199Z" fill="#282828"/>
<g style="mix-blend-mode:overlay">
<path d="M23.5708 39.6399C23.5708 40.6799 22.7308 41.5199 21.6908 41.5199C20.6508 41.5199 19.8108 40.6799 19.8108 39.6399C19.8108 38.5999 20.6508 37.7599 21.6908 37.7599C22.7308 37.7599 23.5708 38.5999 23.5708 39.6399Z" fill="#C9C9C9"/>
</g>
<g style="mix-blend-mode:multiply">
<path d="M22.8208 36.5499C20.9108 36.5499 19.3608 38.0999 19.3608 40.0199C19.3608 41.9399 20.9108 43.4799 22.8208 43.4799C24.7308 43.4799 26.2908 41.9299 26.2908 40.0199C26.2908 38.1099 24.7408 36.5499 22.8208 36.5499ZM22.0708 42.1299C20.7008 42.1299 19.5909 41.0199 19.5909 39.6499C19.5909 38.2799 20.7008 37.1699 22.0708 37.1699C23.4408 37.1699 24.5508 38.2799 24.5508 39.6499C24.5508 41.0199 23.4408 42.1299 22.0708 42.1299Z" fill="black"/>
</g>
<path d="M22.5808 39.2699C22.5808 39.8299 22.1208 40.2899 21.5608 40.2899C21.0008 40.2899 20.5408 39.8299 20.5408 39.2699C20.5408 38.7099 21.0008 38.2499 21.5608 38.2499C22.1208 38.2499 22.5808 38.7099 22.5808 39.2699Z" fill="white"/>
<path d="M24.7207 42.0699C24.7207 42.3999 24.4508 42.6699 24.1208 42.6699C23.7908 42.6699 23.5208 42.3999 23.5208 42.0699C23.5208 41.7399 23.7908 41.4699 24.1208 41.4699C24.4508 41.4699 24.7207 41.7399 24.7207 42.0699Z" fill="white"/>
<g style="mix-blend-mode:screen" opacity="0.3">
<path d="M21.4208 41.7299C20.8408 41.6599 20.4008 41.4199 20.4308 41.1899C20.4608 40.9599 20.9408 40.8299 21.5208 40.8899C22.1008 40.9599 22.5408 41.1999 22.5208 41.4299C22.4908 41.6599 22.0108 41.7899 21.4308 41.7299H21.4208Z" fill="#BFBFBF"/>
</g>
<path d="M44.6607 40.0199C44.6607 41.9299 43.1107 43.4899 41.1907 43.4899C39.2707 43.4899 37.7207 41.9399 37.7207 40.0199C37.7207 38.0999 39.2707 36.5499 41.1907 36.5499C43.1107 36.5499 44.6607 38.0999 44.6607 40.0199Z" fill="#282828"/>
<g style="mix-blend-mode:overlay">
<path d="M40.0807 41.5199C41.119 41.5199 41.9607 40.6782 41.9607 39.6399C41.9607 38.6016 41.119 37.7599 40.0807 37.7599C39.0424 37.7599 38.2007 38.6016 38.2007 39.6399C38.2007 40.6782 39.0424 41.5199 40.0807 41.5199Z" fill="#C9C9C9"/>
</g>
<g style="mix-blend-mode:multiply">
<path d="M41.1907 36.5499C39.2807 36.5499 37.7307 38.0999 37.7307 40.0199C37.7307 41.9399 39.2807 43.4799 41.1907 43.4799C43.1007 43.4799 44.6607 41.9299 44.6607 40.0199C44.6607 38.1099 43.1107 36.5499 41.1907 36.5499ZM40.4407 42.1299C39.0707 42.1299 37.9607 41.0199 37.9607 39.6499C37.9607 38.2799 39.0707 37.1699 40.4407 37.1699C41.8107 37.1699 42.9207 38.2799 42.9207 39.6499C42.9207 41.0199 41.8107 42.1299 40.4407 42.1299Z" fill="black"/>
</g>
<path d="M40.9607 39.2699C40.9607 39.8299 40.5007 40.2899 39.9407 40.2899C39.3807 40.2899 38.9207 39.8299 38.9207 39.2699C38.9207 38.7099 39.3807 38.2499 39.9407 38.2499C40.5007 38.2499 40.9607 38.7099 40.9607 39.2699Z" fill="white"/>
<path d="M43.1008 42.0699C43.1008 42.3999 42.8307 42.6699 42.5007 42.6699C42.1707 42.6699 41.9008 42.3999 41.9008 42.0699C41.9008 41.7399 42.1707 41.4699 42.5007 41.4699C42.8307 41.4699 43.1008 41.7399 43.1008 42.0699Z" fill="white"/>
<g style="mix-blend-mode:screen" opacity="0.3">
<path d="M39.8005 41.7297C39.2205 41.6597 38.7805 41.4197 38.8005 41.1897C38.8305 40.9597 39.3105 40.8297 39.8905 40.8897C40.4705 40.9597 40.9105 41.1997 40.8905 41.4297C40.8605 41.6597 40.3805 41.7897 39.8005 41.7297Z" fill="#BFBFBF"/>
</g>
<path d="M41.983 48C41.983 51.2198 40.4527 54.0858 38.0821 55.9169C37.8609 56.0849 37.6398 56.2441 37.4098 56.3945C36.0829 57.2525 34.5527 57.801 32.8985 57.9425C32.757 57.9602 32.6066 57.969 32.4563 57.969C32.3059 57.9779 32.1555 57.9867 32.0051 57.9867C31.439 57.9867 30.8906 57.9425 30.351 57.8452C30.2448 57.8275 30.1387 57.8098 30.0414 57.7921C28.2811 57.4383 26.68 56.6245 25.3797 55.4657C25.362 55.4569 25.3532 55.4392 25.3355 55.4303C23.301 53.5993 22.0272 50.9456 22.0272 48H42.0007H41.983Z" fill="#282828"/>
<path d="M22.0182 48C22.0182 50.9456 23.3008 53.5993 25.3265 55.4303C25.3442 55.4392 25.3618 55.4569 25.3707 55.4657C26.6621 56.6157 28.2632 57.4383 30.0323 57.7921C30.1385 57.8098 30.2358 57.8364 30.3419 57.8452C30.8815 57.9337 31.4299 57.9867 31.9961 57.9867C32.1464 57.9867 32.3057 57.9867 32.4472 57.969C32.5976 57.969 32.7391 57.9513 32.8895 57.9425C34.5436 57.801 36.0828 57.2525 37.4008 56.3945C37.6308 56.253 37.8607 56.0849 38.073 55.9169C40.4437 54.0947 41.974 51.2287 41.974 48H22.0005H22.0182ZM37.2416 54.2362C37.0823 54.4042 36.9231 54.5635 36.755 54.7227C36.472 54.9792 36.1624 55.2092 35.8351 55.4215C35.6582 55.5365 35.4724 55.6426 35.2866 55.7399C34.5967 56.1026 33.8448 56.3503 33.0487 56.4653C32.8983 56.4918 32.748 56.5095 32.5976 56.5184C32.403 56.5361 32.2084 56.5449 32.0138 56.5449C31.4123 56.5449 30.8196 56.4741 30.2535 56.3238C30.165 56.3061 30.0854 56.2795 29.997 56.253C29.1389 55.9965 28.3517 55.5896 27.6617 55.05C27.6617 55.05 27.6617 55.05 27.6528 55.05C27.2371 54.7315 26.8656 54.3689 26.5383 53.962L26.441 53.847C25.4857 52.644 24.9195 51.1225 24.9195 49.4595H39.0991C39.0991 51.3083 38.3915 52.9889 37.2416 54.245V54.2362Z" fill="black"/>
<g style="mix-blend-mode:multiply">
<path d="M33.0577 56.8102C33.0577 56.9959 33.04 57.1729 33.0223 57.3586C33.0223 57.3675 33.0223 57.3763 33.0223 57.3852C33.0223 57.3852 33.0223 57.4028 33.0223 57.4117C33.0223 57.4205 33.0223 57.4294 33.0223 57.4471V57.4648C33.0135 57.5355 33.0046 57.6063 32.9869 57.677C32.9692 57.7478 32.9515 57.8186 32.9338 57.8893C32.9338 57.907 32.925 57.9247 32.9162 57.9424C32.7746 57.9601 32.6243 57.9689 32.4739 57.9689C32.3235 57.9778 32.1731 57.9866 32.0227 57.9866C31.4566 57.9866 30.9082 57.9424 30.3686 57.8451C30.2625 57.8274 30.1563 57.8097 30.059 57.792C28.2987 57.4382 26.6977 56.6244 25.3974 55.4656C25.3797 55.4568 25.3708 55.4391 25.3531 55.4302C25.4239 55.2445 25.5035 55.0587 25.6097 54.8818C25.6362 54.8287 25.6716 54.7757 25.6981 54.7226C25.9104 54.3865 26.1581 54.0857 26.4589 53.8292C27.1134 53.2542 27.9449 52.8827 28.8737 52.8296C28.9533 52.8296 29.0241 52.8296 29.0948 52.8296C30.0679 52.8296 30.9613 53.1746 31.6601 53.7584C31.7928 53.8734 31.9166 53.9973 32.0316 54.1211L32.0758 54.1653C32.4916 54.6341 32.8012 55.2003 32.9604 55.8372V55.8548C33.0135 56.0494 33.0489 56.2529 33.0666 56.4652C33.0754 56.5802 33.0842 56.704 33.0842 56.8279L33.0577 56.8102Z" fill="#C9B3A9"/>
<path d="M38.0822 55.9079C37.8611 56.076 37.6399 56.2352 37.4099 56.3856C36.0831 57.2436 34.5528 57.792 32.8987 57.9336C32.7571 57.9512 32.6068 57.9601 32.4564 57.9601C32.306 57.9689 32.1556 57.9778 32.0053 57.9778C31.4391 57.9778 30.8907 57.9335 30.3511 57.8362C30.3423 57.8009 30.3334 57.7655 30.3246 57.7301C30.3069 57.6593 30.2892 57.5886 30.2803 57.509C30.2715 57.4647 30.2627 57.4294 30.2538 57.3851C30.2538 57.3409 30.245 57.3055 30.2361 57.2613C30.2184 57.1109 30.2096 56.9605 30.2096 56.8101C30.2096 56.6598 30.2184 56.5006 30.2361 56.359C30.2361 56.3413 30.2361 56.3236 30.2361 56.3148C30.2361 56.2882 30.2361 56.2617 30.245 56.2352C30.2981 55.8283 30.4219 55.4391 30.6077 55.0675C30.6519 54.9614 30.705 54.8641 30.7669 54.7757C30.8376 54.6518 30.9261 54.528 31.0146 54.413C31.0942 54.3068 31.1826 54.2095 31.2711 54.1122L31.3153 54.068C31.3153 54.068 31.3507 54.0238 31.3684 54.0061C31.4126 53.9619 31.4568 53.9176 31.4922 53.8822C31.5365 53.838 31.5807 53.8026 31.6249 53.7584C31.6514 53.7407 31.678 53.723 31.6957 53.7053C32.3768 53.1481 33.2437 52.8208 34.1901 52.8208C34.9243 52.8208 35.6143 53.0242 36.2069 53.3692C36.2954 53.4223 36.3927 53.4753 36.4723 53.5373C36.7465 53.7319 37.003 53.9619 37.2242 54.2272C37.6311 54.7049 37.9318 55.2799 38.0734 55.9079H38.0822Z" fill="#C9B3A9"/>
</g>
<g style="mix-blend-mode:multiply">
<path d="M33.0137 57.3851C33.0137 57.3851 33.0137 57.4028 33.0137 57.4117C33.0137 57.4205 33.0137 57.4293 33.0137 57.447V57.4647C33.0048 57.5355 32.996 57.6063 32.9783 57.677C32.9606 57.7478 32.9429 57.8185 32.9252 57.8893C32.9252 57.907 32.9163 57.9247 32.9075 57.9424C32.766 57.9601 32.6156 57.9689 32.4652 57.9689C32.3148 57.9778 32.1645 57.9866 32.0141 57.9866C31.448 57.9866 30.8996 57.9424 30.36 57.8451C30.2538 57.8274 30.1477 57.8097 30.0504 57.792C28.2901 57.4382 26.689 56.6244 25.3887 55.4656C25.371 55.4568 25.3622 55.4391 25.3445 55.4302C25.4152 55.2445 25.4949 55.0587 25.601 54.8818C25.6276 54.8287 25.6629 54.7756 25.6894 54.7226C25.9017 54.3864 26.1494 54.0857 26.4502 53.8292C27.1048 53.2542 27.9363 52.8827 28.8651 52.8296C28.9447 52.8296 29.0154 52.8296 29.0862 52.8296C30.0592 52.8296 30.9526 53.1746 31.6514 53.7584C31.7841 53.8734 31.9079 53.9972 32.0229 54.1211C31.9433 54.1741 31.8637 54.2184 31.7841 54.2803H31.7753C31.7753 54.2803 31.7045 54.3422 31.6691 54.3776C31.6691 54.3776 31.6514 54.3687 31.6514 54.3599C31.6337 54.3422 31.6161 54.3245 31.5984 54.3157C31.5984 54.3157 31.5983 54.3068 31.5807 54.298C31.4834 54.2272 31.3949 54.1653 31.2888 54.1034C31.2711 54.0857 31.2534 54.0768 31.2268 54.068C30.8465 53.8557 30.413 53.7407 29.9531 53.7407C29.9 53.7407 29.8558 53.7407 29.8027 53.7407C29.5019 53.7584 29.2189 53.8203 28.9535 53.9353C28.5643 54.0945 28.2193 54.3422 27.954 54.6606C27.8832 54.7491 27.8124 54.8376 27.7505 54.9349C27.7505 54.9349 27.7417 54.9526 27.7328 54.9526C27.7328 54.9703 27.7151 54.9879 27.7063 55.0056L27.6886 55.0322C27.547 55.271 27.4321 55.5452 27.3701 55.8283H27.379C28.0866 56.3944 28.8916 56.8367 29.7762 57.1109C29.8469 57.1286 29.9088 57.1463 29.9708 57.164C30.0681 57.1905 30.1742 57.2171 30.2715 57.2436C30.4838 57.2967 30.7049 57.332 30.9172 57.3674C31.2799 57.4205 31.6337 57.4559 32.0053 57.4559C32.1468 57.4559 32.2883 57.4559 32.421 57.4382C32.4829 57.4382 32.536 57.4382 32.5979 57.4293C32.5979 57.4293 32.651 57.4293 32.6864 57.4293C32.8102 57.4205 32.9252 57.4028 33.0402 57.3851H33.0137Z" fill="#C9B3A9"/>
<path d="M38.0822 55.9079C37.8611 56.0759 37.6399 56.2352 37.4099 56.3855C36.0831 57.2436 34.5528 57.792 32.8987 57.9335C32.7572 57.9512 32.6068 57.9601 32.4564 57.9601C32.306 57.9689 32.1556 57.9777 32.0053 57.9777C31.4391 57.9777 30.8907 57.9335 30.3511 57.8362C30.3423 57.8008 30.3334 57.7655 30.3246 57.7301C30.3069 57.6593 30.2892 57.5885 30.2804 57.5089C30.2715 57.4647 30.2627 57.4293 30.2627 57.3851C30.2627 57.3851 30.245 57.3055 30.245 57.2613C30.4573 57.3055 30.6784 57.3497 30.8907 57.3763C31.2534 57.4293 31.6072 57.4647 31.9787 57.4647C32.1203 57.4647 32.2618 57.4647 32.3945 57.447C32.4564 57.447 32.5095 57.447 32.5714 57.4382C32.5714 57.4382 32.6245 57.4382 32.6598 57.4382C32.7837 57.4293 32.8987 57.4116 33.0137 57.3939C34.1105 57.2436 35.1278 56.8455 36.0212 56.2617C36.0035 55.9609 35.9327 55.6779 35.8266 55.4125C35.6851 55.0498 35.4639 54.7314 35.1809 54.466C35.0924 54.3776 34.9951 54.298 34.889 54.2272C34.4555 53.9265 33.9248 53.7495 33.3587 53.7495C32.8721 53.7495 32.4033 53.8822 32.0053 54.1122C31.9257 54.1653 31.8461 54.2095 31.7664 54.2714H31.7576C31.7576 54.2714 31.6868 54.3334 31.6515 54.3687C31.6515 54.3687 31.6337 54.3599 31.6337 54.351C31.6161 54.3333 31.5984 54.3157 31.5807 54.3068C31.5807 54.3068 31.5807 54.298 31.563 54.2891C31.4657 54.2184 31.3772 54.1564 31.2711 54.0945L31.3153 54.0503C31.3153 54.0503 31.3507 54.006 31.3684 53.9884C31.4126 53.9441 31.4569 53.8999 31.4922 53.8645C31.5365 53.8203 31.5807 53.7849 31.6249 53.7407C31.6515 53.723 31.678 53.7053 31.6957 53.6876C32.3768 53.1303 33.2437 52.803 34.1901 52.803C34.9243 52.803 35.6143 53.0065 36.207 53.3515C36.2954 53.4045 36.3927 53.4576 36.4723 53.5195C36.7465 53.7141 37.0031 53.9441 37.2242 54.2095C37.6311 54.6872 37.9318 55.2621 38.0734 55.8902L38.0822 55.9079Z" fill="#C9B3A9"/>
</g>
<path d="M32.6073 56.8984C32.6073 57.0842 32.5896 57.2611 32.5719 57.4291C32.563 57.5176 32.5453 57.5972 32.5276 57.6768C32.51 57.7564 32.4923 57.836 32.4746 57.9156C32.4746 57.9333 32.4746 57.951 32.4569 57.9687C32.3065 57.9776 32.1561 57.9864 32.0058 57.9864C31.4396 57.9864 30.8912 57.9422 30.3516 57.8449C30.2455 57.8272 30.1393 57.8095 30.042 57.7918C28.2817 57.438 26.6807 56.6242 25.3804 55.4654C25.4511 55.2797 25.5484 55.1027 25.6546 54.9347C25.8934 54.5543 26.1853 54.227 26.5391 53.9528C27.123 53.4928 27.8572 53.2009 28.6444 53.1567C28.7152 53.1567 28.7859 53.1567 28.8567 53.1567C29.7767 53.1567 30.6258 53.484 31.2804 54.0413C31.2981 54.059 31.307 54.0678 31.3246 54.0855C31.4131 54.1563 31.4927 54.2359 31.5635 54.3243C31.5635 54.3243 31.5723 54.3243 31.5812 54.342C31.5988 54.3597 31.6166 54.3774 31.6254 54.3951C32.0411 54.8462 32.3507 55.4035 32.5011 56.0138C32.5453 56.1819 32.5719 56.3588 32.5896 56.5357C32.6073 56.6684 32.6073 56.8011 32.6073 56.9338V56.8984Z" fill="#FF5545"/>
<path d="M37.4105 56.3854C36.0837 57.2434 34.5534 57.7918 32.8993 57.9334C32.7577 57.9511 32.6074 57.9599 32.457 57.9599C32.3066 57.9687 32.1562 57.9776 32.0058 57.9776C31.4397 57.9776 30.8913 57.9334 30.3517 57.836C30.2456 57.8184 30.1394 57.8007 30.0421 57.783C30.0244 57.7034 30.0067 57.6414 29.9979 57.5618C29.9802 57.4822 29.9714 57.3938 29.9625 57.3142C29.9625 57.2699 29.9537 57.2169 29.9448 57.1726C29.9448 57.0842 29.9448 56.9869 29.9448 56.8984C29.9448 56.7127 29.9537 56.5357 29.9802 56.35C29.9802 56.3146 29.9891 56.2704 29.9979 56.235C30.0598 55.8546 30.1837 55.5008 30.3606 55.1735C30.4667 54.9524 30.6082 54.7401 30.7586 54.5543C30.8117 54.4836 30.8736 54.4128 30.9355 54.342L31.0947 54.1828C31.0947 54.1828 31.1832 54.1032 31.2186 54.0678C31.2363 54.0501 31.254 54.0324 31.2805 54.0147C31.3955 53.9174 31.5105 53.829 31.6432 53.7494C31.6697 53.7317 31.6962 53.714 31.7228 53.6963C32.2977 53.3336 32.9789 53.1302 33.7042 53.1302C34.5092 53.1302 35.2522 53.3867 35.8625 53.8113C36.2075 54.0501 36.5171 54.3597 36.7648 54.7047C37.1098 55.1912 37.3486 55.7573 37.4282 56.3765L37.4105 56.3854Z" fill="#FF5545"/>
<g style="mix-blend-mode:multiply">
<path d="M32.5719 57.4472C32.563 57.5268 32.5453 57.6065 32.5276 57.6861C32.51 57.7657 32.4923 57.8453 32.4746 57.9249C32.4746 57.9426 32.4746 57.9603 32.4569 57.978C32.3065 57.9868 32.1561 57.9956 32.0058 57.9956C31.4396 57.9956 30.8912 57.9514 30.3516 57.8541C30.2455 57.8364 30.1393 57.8188 30.042 57.8011C28.2817 57.4472 26.6807 56.6334 25.3804 55.4747C25.4511 55.2889 25.5484 55.112 25.6546 54.9439C25.8934 54.5635 26.1853 54.2362 26.5391 53.962C27.123 53.5021 27.8572 53.2102 28.6444 53.1659C28.7152 53.1659 28.7859 53.1659 28.8567 53.1659C29.7767 53.1659 30.6258 53.4932 31.2804 54.0505C31.2981 54.0682 31.307 54.077 31.3246 54.0947C31.4131 54.1655 31.4927 54.2451 31.5635 54.3336C31.5635 54.3336 31.5723 54.3335 31.5812 54.3512C31.5988 54.3689 31.6166 54.3866 31.6254 54.4043C31.5016 54.4751 31.3954 54.5459 31.2893 54.6432C31.245 54.6078 31.2008 54.5724 31.1566 54.537H31.1477C31.1477 54.537 31.0681 54.4751 31.0239 54.4486C30.9974 54.4309 30.962 54.4132 30.9354 54.3866C30.5639 54.1743 30.1305 54.0505 29.6793 54.0505C29.6263 54.0505 29.582 54.0505 29.5378 54.0505C29.4228 54.0505 29.3078 54.0682 29.2017 54.0947C28.7329 54.1832 28.3083 54.4043 27.981 54.7139C27.8925 54.7935 27.8129 54.882 27.7333 54.9704C27.7333 54.9704 27.7245 54.9881 27.7156 54.9881C27.6979 55.0058 27.6802 55.0324 27.6625 55.0589C27.6272 55.112 27.5829 55.1739 27.5475 55.2358C27.406 55.4746 27.291 55.7312 27.2379 56.0054C27.9102 56.545 28.671 56.9607 29.5024 57.2172C29.6617 57.2703 29.812 57.3057 29.9713 57.3411C30.0686 57.3676 30.1747 57.3853 30.272 57.4119C30.3693 57.4295 30.4755 57.4472 30.5728 57.4649C30.9089 57.518 31.2539 57.5357 31.5989 57.5357C31.7315 57.5357 31.8642 57.5357 31.9969 57.5357C32.2003 57.5268 32.395 57.5003 32.5807 57.4738L32.5719 57.4472Z" fill="#FFA19C"/>
<path d="M37.4102 56.3857C36.0833 57.2437 34.5531 57.7921 32.8989 57.9337C32.7574 57.9514 32.607 57.9602 32.4566 57.9602C32.3063 57.9691 32.1559 57.9779 32.0055 57.9779C31.4394 57.9779 30.891 57.9337 30.3514 57.8364C30.2452 57.8187 30.1391 57.801 30.0418 57.7833C30.0241 57.7037 30.0064 57.6418 29.9975 57.5621C29.9799 57.4825 29.971 57.3941 29.9622 57.3145C30.0595 57.341 30.1656 57.3587 30.2629 57.3764C30.3602 57.3941 30.4664 57.4118 30.5637 57.4295C30.8998 57.4825 31.2448 57.5002 31.5898 57.5002C31.7224 57.5002 31.8551 57.5002 31.9878 57.5002C32.1913 57.4914 32.3859 57.4649 32.5716 57.4383C32.5982 57.4383 32.6335 57.4383 32.6601 57.4206C32.7839 57.4029 32.8989 57.3852 33.0227 57.3499C33.8896 57.1729 34.6946 56.8368 35.4022 56.368C35.3845 56.1468 35.3492 55.9257 35.2784 55.7223C35.1634 55.3773 34.9776 55.0677 34.7388 54.8112C34.615 54.6785 34.4823 54.5546 34.3408 54.4573C33.9339 54.1654 33.4297 54.0062 32.8989 54.0062C32.5982 54.0062 32.3151 54.0593 32.0497 54.1477C31.9524 54.1831 31.864 54.2185 31.7755 54.2627H31.7667C31.7667 54.2627 31.6782 54.3158 31.634 54.3423H31.6251C31.5013 54.4131 31.3952 54.4927 31.289 54.59C31.2448 54.5546 31.2006 54.5193 31.1563 54.4839H31.1475C31.1475 54.4839 31.0679 54.422 31.0236 54.3954C30.9971 54.3777 30.9617 54.36 30.9352 54.3335L31.0944 54.1743C31.0944 54.1743 31.1828 54.0947 31.2182 54.0593C31.2359 54.0416 31.2536 54.0239 31.2802 54.0062C31.3951 53.9089 31.5101 53.8204 31.6428 53.7408C31.6694 53.7231 31.6959 53.7054 31.7224 53.6878C32.2974 53.3251 32.9785 53.1216 33.7039 53.1216C34.5088 53.1216 35.2518 53.3782 35.8622 53.8027C36.2072 54.0416 36.5168 54.3512 36.7645 54.6962C37.1094 55.1827 37.3483 55.7488 37.4279 56.368L37.4102 56.3857Z" fill="#FFA19C"/>
</g>
<g opacity="0.6">
<g style="mix-blend-mode:screen">
<path d="M28.4941 53.8291C29.1576 53.9617 29.6441 54.2802 29.591 54.5456C29.5379 54.8109 28.963 54.9082 28.2995 54.7844C27.6361 54.6517 27.1496 54.3333 27.2027 54.0679C27.2558 53.8025 27.8307 53.6964 28.4941 53.8291Z" fill="white"/>
</g>
<g style="mix-blend-mode:screen">
<path d="M30.405 54.2624C30.6616 54.3155 30.8208 54.5632 30.7677 54.8108C30.7147 55.0674 30.467 55.2266 30.2193 55.1735C29.9628 55.1204 29.8035 54.8727 29.8566 54.6251C29.9097 54.3685 30.1485 54.2093 30.405 54.2624Z" fill="white"/>
</g>
</g>
</g>
<defs>
<radialGradient id="paint0_radial_1457_93438" cx="0" cy="0" r="1" gradientUnits="userSpaceOnUse" gradientTransform="translate(32.1529 32.1358) rotate(90) scale(49.934 35.437)">
<stop stop-color="#F99406"/>
<stop offset="0.476332" stop-color="#F66B04"/>
<stop offset="1" stop-color="#ED2D00"/>
</radialGradient>
<radialGradient id="paint1_radial_1457_93438" cx="0" cy="0" r="1" gradientUnits="userSpaceOnUse" gradientTransform="translate(32.132 35.4709) rotate(90) scale(42.6855 30.6047)">
<stop stop-color="#F99406"/>
<stop offset="0.476332" stop-color="#F66B04"/>
<stop offset="1" stop-color="#ED2D00"/>
</radialGradient>
<clipPath id="clip0_1457_93438">
<rect width="64" height="64" fill="white"/>
</clipPath>
</defs>
</svg>
