<svg width="64" height="64" viewBox="0 0 64 64" fill="none" xmlns="http://www.w3.org/2000/svg">
<g clip-path="url(#clip0_1457_93291)">
<g style="mix-blend-mode:multiply">
<path d="M52.4465 61.9221C52.4465 63.0682 43.372 64.0002 32.1816 64.0002C20.9912 64.0002 11.9167 63.0682 11.9167 61.9221C11.9167 60.776 20.9912 59.844 32.1816 59.844C43.372 59.844 52.4465 60.776 52.4465 61.9221Z" fill="#E6E6E6"/>
</g>
<g style="mix-blend-mode:multiply">
<path d="M45.0904 61.519C45.0904 62.2495 39.3094 62.8414 32.1808 62.8414C25.0522 62.8414 19.2712 62.2495 19.2712 61.519C19.2712 60.7885 25.0522 60.1965 32.1808 60.1965C39.3094 60.1965 45.0904 60.7885 45.0904 61.519Z" fill="#999999"/>
</g>
<path d="M25.1384 11.476C26.8315 9.53325 31.2576 4.12841 31.9995 6.10352e-05C32.7414 4.12841 37.1685 9.53325 38.8616 11.476C38.8235 9.32154 38.6396 7.16085 38.2148 5.18697C38.2148 5.18697 41.8038 12.2917 44.6954 21.3205C44.9616 21.7002 45.2282 22.0804 45.488 22.46C45.6212 20.0316 45.5895 17.5782 45.2407 15.3304C45.2407 15.3304 48.1259 21.9619 50.4405 30.5237C50.656 30.9285 50.859 31.3332 51.0555 31.7379C51.677 28.4564 51.677 25.9844 51.677 25.9844C54.8095 32.4665 54.0485 39.3035 53.5032 42.2114C53.4715 42.6037 53.4335 42.9959 53.3764 43.382C53.3066 43.8926 53.2179 44.3907 53.1101 44.8889C51.9179 50.5054 48.5001 55.3187 43.8013 58.3948C43.6111 58.5193 43.4208 58.6376 43.2306 58.7559C39.9586 60.7547 36.1212 61.9378 31.9995 62.0001C27.8778 61.9378 24.0414 60.7547 20.7694 58.7559C20.5792 58.6376 20.3889 58.5193 20.1987 58.3948C15.4999 55.3187 12.0821 50.5054 10.8899 44.8889C10.7821 44.3907 10.6934 43.8926 10.6236 43.382C10.5665 42.9959 10.5285 42.6037 10.4968 42.2114C9.95145 39.3035 9.19052 32.4665 12.323 25.9844C12.323 25.9844 12.323 28.4564 12.9445 31.7379C13.141 31.3332 13.3439 30.9285 13.5595 30.5237C15.8741 21.9619 18.7593 15.3304 18.7593 15.3304C18.4105 17.5782 18.3788 20.0316 18.512 22.46C18.7719 22.0802 19.0383 21.7004 19.3046 21.3205C22.1962 12.2917 25.7852 5.18697 25.7852 5.18697C25.3604 7.16085 25.1765 9.32154 25.1384 11.476Z" fill="#ED2D00"/>
<path opacity="0.6" d="M50.329 35.5606C49.8781 36.5832 49.4207 37.6057 48.9633 38.6283C48.4144 34.5657 47.8655 30.4962 47.3232 26.4336C46.8527 27.5184 46.3822 28.6031 45.9183 29.6878C44.1082 25.1209 42.2917 20.5471 40.4817 15.9801C40.6516 17.1754 40.828 18.3707 40.9979 19.559C37.221 16.4914 34.1433 12.4979 32 8.00006C29.8567 12.4979 26.7725 16.4914 23.0021 19.559C23.172 18.3638 23.3485 17.1685 23.5183 15.9801C21.7083 20.5471 19.8918 25.1209 18.0817 29.6878C17.6112 28.6031 17.1408 27.5115 16.6768 26.4336C16.1279 30.4962 15.579 34.5657 15.0367 38.6283C14.5858 37.6057 14.1284 36.5832 13.671 35.5606C12.0243 41.8065 13.4619 48.8607 17.3956 53.8353C20.9569 58.3331 26.4654 60.9932 32 61.0001C37.5346 60.9932 43.0497 58.3331 46.6044 53.8353C50.5381 48.8607 51.9757 41.7996 50.329 35.5606Z" fill="url(#paint0_radial_1457_93291)"/>
<path d="M37.91 51.46C37.91 52.87 37.46 54.18 36.68 55.24C36.54 55.43 36.39 55.62 36.24 55.79C35.28 56.85 33.98 57.58 32.52 57.82C32.39 57.84 32.25 57.86 32.12 57.88C31.9 57.9 31.68 57.91 31.46 57.91C30.99 57.91 30.54 57.86 30.1 57.77C30.01 57.75 29.91 57.73 29.82 57.7C28.3 57.3 27 56.37 26.14 55.1C26.12 55.07 26.1 55.05 26.08 55.02C25.4 54 25 52.77 25 51.45C25 47.89 27.89 45 31.45 45C35.01 45 37.91 47.89 37.91 51.45V51.46Z" fill="#282828"/>
<path d="M31.45 45C27.89 45 25 47.89 25 51.45C25 52.77 25.4 54 26.08 55.02C26.1 55.05 26.11 55.08 26.14 55.1C27 56.36 28.3 57.3 29.82 57.7C29.91 57.73 30.01 57.75 30.1 57.77C30.54 57.86 30.99 57.91 31.46 57.91C31.68 57.91 31.9 57.9 32.12 57.88C32.25 57.86 32.39 57.85 32.52 57.82C33.99 57.58 35.29 56.84 36.24 55.79C36.4 55.61 36.55 55.43 36.68 55.24C37.45 54.18 37.91 52.87 37.91 51.46C37.91 47.9 35.02 45.01 31.45 45.01V45ZM31.45 47.08C33.87 47.08 35.83 49.04 35.83 51.45C35.83 52.33 35.57 53.15 35.12 53.84C35.03 53.98 34.93 54.11 34.83 54.24C34.66 54.44 34.47 54.63 34.27 54.8C34.15 54.9 34.01 55 33.88 55.09C33.41 55.4 32.89 55.62 32.32 55.74C32.18 55.77 32.04 55.79 31.89 55.8C31.75 55.82 31.6 55.82 31.45 55.82C31.06 55.82 30.68 55.77 30.32 55.67C30.26 55.65 30.21 55.64 30.15 55.62C30.04 55.58 29.93 55.55 29.82 55.5C29.63 55.43 29.45 55.34 29.27 55.24C29.03 55.11 28.81 54.95 28.61 54.77C28.58 54.74 28.55 54.71 28.52 54.69C28.41 54.59 28.3 54.48 28.19 54.36C28.07 54.22 27.95 54.08 27.84 53.92C27.8 53.86 27.76 53.8 27.72 53.73C27.31 53.06 27.07 52.28 27.07 51.43C27.07 49.02 29.03 47.06 31.44 47.06L31.45 47.08Z" fill="black"/>
<g style="mix-blend-mode:multiply">
<path d="M32.5897 57.11C32.5897 57.28 32.5797 57.44 32.5597 57.6C32.5597 57.6 32.5597 57.61 32.5597 57.62C32.5597 57.62 32.5597 57.64 32.5597 57.65C32.5597 57.65 32.5597 57.67 32.5597 57.68V57.7C32.5597 57.7 32.5397 57.79 32.5297 57.83C32.3997 57.85 32.2597 57.87 32.1297 57.89C31.9097 57.91 31.6897 57.92 31.4697 57.92C30.9997 57.92 30.5497 57.87 30.1097 57.78C30.0197 57.76 29.9197 57.74 29.8297 57.71C28.3097 57.31 27.0097 56.38 26.1497 55.11C26.1297 55.08 26.1097 55.06 26.0897 55.03C26.2497 54.81 26.4297 54.6 26.6397 54.42C26.9597 54.14 27.3297 53.91 27.7397 53.75C28.0797 53.62 28.4397 53.54 28.8097 53.52C28.8797 53.52 28.9397 53.52 29.0097 53.52C29.8897 53.52 30.6897 53.83 31.3097 54.36C31.4297 54.46 31.5397 54.57 31.6397 54.69L31.6797 54.73C31.9497 55.03 32.1697 55.38 32.3197 55.76C32.3797 55.91 32.4397 56.07 32.4797 56.24C32.5197 56.43 32.5597 56.61 32.5697 56.8C32.5797 56.9 32.5897 57.01 32.5897 57.12V57.11Z" fill="#C9B3A9"/>
<path d="M36.6797 55.2402C36.5397 55.4302 36.3897 55.6203 36.2397 55.7903C35.2797 56.8503 33.9797 57.5803 32.5197 57.8203C32.3897 57.8403 32.2497 57.8602 32.1197 57.8802C31.8997 57.9002 31.6797 57.9102 31.4597 57.9102C30.9897 57.9102 30.5397 57.8602 30.0997 57.7702C30.0997 57.7602 30.0997 57.7502 30.0997 57.7402C30.0997 57.7202 30.0997 57.7002 30.0897 57.6802C30.0897 57.6602 30.0897 57.6402 30.0797 57.6202C30.0797 57.6202 30.0697 57.5503 30.0697 57.5103C30.0597 57.3803 30.0497 57.2403 30.0497 57.1103C30.0497 56.9703 30.0597 56.8303 30.0797 56.7003C30.0797 56.6803 30.0797 56.6702 30.0797 56.6602C30.0797 56.6402 30.0797 56.6202 30.0897 56.5902C30.1297 56.2802 30.2197 55.9702 30.3497 55.6902C30.3697 55.6402 30.3897 55.5903 30.4197 55.5503C30.4597 55.4603 30.5097 55.3703 30.5597 55.2903C30.6297 55.1703 30.6997 55.0603 30.7797 54.9503C30.8497 54.8603 30.9297 54.7602 31.0097 54.6802L31.0497 54.6403C31.0497 54.6403 31.0797 54.6002 31.0997 54.5902C31.1397 54.5502 31.1797 54.5103 31.2097 54.4803C31.2497 54.4403 31.2897 54.4102 31.3297 54.3702C31.3497 54.3502 31.3697 54.3403 31.3897 54.3203C31.9997 53.8203 32.7897 53.5302 33.6297 53.5302C34.1597 53.5302 34.6697 53.6503 35.1297 53.8603C35.2397 53.9103 35.3397 53.9602 35.4497 54.0302C35.5297 54.0802 35.6097 54.1302 35.6897 54.1802C35.9397 54.3602 36.1697 54.5603 36.3697 54.8003C36.4897 54.9403 36.5997 55.1003 36.6997 55.2603L36.6797 55.2402Z" fill="#C9B3A9"/>
</g>
<g style="mix-blend-mode:multiply">
<path d="M32.55 57.62C32.55 57.62 32.55 57.64 32.55 57.65C32.55 57.65 32.55 57.67 32.55 57.68V57.7C32.55 57.7 32.53 57.79 32.52 57.83C32.39 57.85 32.25 57.87 32.12 57.89C31.9 57.91 31.68 57.92 31.46 57.92C30.99 57.92 30.54 57.87 30.1 57.78C30.01 57.76 29.9099 57.74 29.8199 57.71C28.2999 57.31 27 56.38 26.14 55.11C26.12 55.08 26.1 55.06 26.08 55.03C26.24 54.81 26.42 54.6 26.63 54.42C26.95 54.14 27.3199 53.91 27.7299 53.75C28.0699 53.62 28.43 53.54 28.8 53.52C28.87 53.52 28.93 53.52 29 53.52C29.88 53.52 30.68 53.83 31.3 54.36C31.42 54.46 31.53 54.57 31.63 54.69C31.56 54.74 31.49 54.78 31.42 54.83H31.41C31.41 54.83 31.34 54.89 31.31 54.92C31.31 54.92 31.2999 54.91 31.2899 54.9C31.2699 54.89 31.25 54.87 31.24 54.86C31.24 54.86 31.24 54.86 31.2299 54.85C31.1399 54.79 31.06 54.73 30.97 54.68C30.95 54.67 30.94 54.66 30.92 54.65C30.58 54.46 30.18 54.36 29.77 54.36C29.72 54.36 29.68 54.36 29.64 54.36C29.37 54.37 29.11 54.43 28.87 54.53C28.75 54.58 28.63 54.64 28.52 54.71C28.31 54.84 28.13 55 27.97 55.18C27.9 55.26 27.84 55.34 27.78 55.43C27.78 55.43 27.7699 55.44 27.7599 55.45C27.7599 55.47 27.7399 55.48 27.7299 55.5C27.7299 55.5 27.73 55.52 27.72 55.52C27.59 55.74 27.49 55.98 27.43 56.24H27.44C28.07 56.75 28.8 57.15 29.59 57.4C29.65 57.42 29.71 57.44 29.77 57.45C29.86 57.48 29.9499 57.5 30.0399 57.52C30.2299 57.57 30.43 57.6 30.62 57.63C30.95 57.68 31.27 57.71 31.6 57.71C31.73 57.71 31.8499 57.71 31.9799 57.7C32.03 57.7 32.08 57.7 32.14 57.69C32.14 57.69 32.19 57.69 32.22 57.69C32.33 57.68 32.4399 57.67 32.5399 57.65L32.55 57.62Z" fill="#C9B3A9"/>
<path d="M36.6802 55.24C36.5402 55.43 36.3902 55.62 36.2402 55.79C35.2802 56.85 33.9802 57.58 32.5202 57.82C32.3902 57.84 32.2502 57.86 32.1202 57.88C31.9002 57.9 31.6802 57.91 31.4602 57.91C30.9902 57.91 30.5402 57.86 30.1002 57.77C30.1002 57.76 30.1002 57.75 30.1002 57.74C30.1002 57.72 30.1002 57.7 30.0902 57.68C30.0902 57.66 30.0902 57.64 30.0902 57.62C30.0902 57.62 30.0802 57.55 30.0702 57.51C30.2602 57.55 30.4602 57.59 30.6502 57.61C30.9802 57.66 31.3002 57.69 31.6302 57.69C31.7602 57.69 31.8802 57.69 32.0102 57.68C32.0602 57.68 32.1102 57.68 32.1702 57.67C32.1702 57.67 32.2202 57.67 32.2502 57.67C32.3602 57.66 32.4702 57.65 32.5702 57.63C33.5602 57.49 34.4702 57.14 35.2702 56.61C35.2502 56.34 35.1902 56.08 35.0902 55.85C34.9602 55.52 34.7602 55.24 34.5102 55C34.4402 54.93 34.3602 54.87 34.2802 54.81C34.2802 54.8 34.2602 54.79 34.2502 54.78C33.8602 54.51 33.3902 54.35 32.8702 54.35C32.4302 54.35 32.0102 54.47 31.6502 54.68C31.5802 54.73 31.5102 54.77 31.4402 54.82H31.4302C31.4302 54.82 31.3602 54.88 31.3302 54.91C31.3302 54.91 31.3202 54.9 31.3102 54.89C31.2902 54.88 31.2702 54.86 31.2602 54.85C31.2602 54.85 31.2602 54.85 31.2502 54.84C31.1602 54.78 31.0802 54.72 30.9902 54.67L31.0302 54.63C31.0302 54.63 31.0602 54.59 31.0802 54.58C31.1202 54.54 31.1602 54.5 31.1902 54.47C31.2302 54.43 31.2702 54.4 31.3102 54.36C31.3302 54.34 31.3502 54.33 31.3702 54.31C31.9802 53.81 32.7702 53.52 33.6102 53.52C34.1402 53.52 34.6502 53.64 35.1102 53.85C35.2202 53.9 35.3202 53.95 35.4302 54.02C35.5102 54.07 35.5902 54.12 35.6702 54.17C35.9202 54.35 36.1502 54.55 36.3502 54.79C36.4702 54.93 36.5802 55.09 36.6802 55.25V55.24Z" fill="#C9B3A9"/>
</g>
<path d="M32.1797 57.1902C32.1797 57.3502 32.1697 57.5103 32.1497 57.6703C32.1397 57.7503 32.1297 57.8102 32.1097 57.8802C31.8897 57.9002 31.6697 57.9102 31.4497 57.9102C30.9797 57.9102 30.5298 57.8602 30.0898 57.7702C29.9998 57.7502 29.8998 57.7303 29.8098 57.7003C28.2898 57.3003 26.9898 56.3703 26.1298 55.1003C26.2998 54.8803 26.4897 54.6902 26.7097 54.5202C27.0497 54.2602 27.4298 54.0502 27.8498 53.9402C28.0898 53.8702 28.3497 53.8202 28.6097 53.8102C28.6697 53.8102 28.7397 53.8102 28.7997 53.8102C29.6297 53.8102 30.3897 54.1103 30.9797 54.6003C30.9897 54.6103 31.0097 54.6203 31.0197 54.6403C31.0997 54.7103 31.1697 54.7803 31.2397 54.8503C31.2397 54.8503 31.2398 54.8503 31.2498 54.8603C31.2598 54.8803 31.2797 54.8902 31.2897 54.9102C31.5397 55.1802 31.7397 55.4803 31.8897 55.8203C31.9697 56.0003 32.0297 56.1802 32.0797 56.3702C32.1197 56.5302 32.1498 56.6802 32.1598 56.8402C32.1698 56.9602 32.1797 57.0803 32.1797 57.2003V57.1902Z" fill="#FF5545"/>
<path d="M36.2398 55.7903C35.2798 56.8503 33.9798 57.5803 32.5198 57.8203C32.3898 57.8403 32.2498 57.8602 32.1198 57.8802C31.8998 57.9002 31.6798 57.9102 31.4598 57.9102C30.9898 57.9102 30.5398 57.8602 30.0998 57.7702C30.0098 57.7502 29.9098 57.7303 29.8198 57.7003C29.8198 57.6503 29.8098 57.6102 29.7998 57.5602C29.7998 57.5202 29.7898 57.4702 29.7898 57.4302C29.7898 57.3502 29.7898 57.2702 29.7898 57.1802C29.7898 57.0102 29.7998 56.8502 29.8298 56.6902C29.8298 56.6502 29.8398 56.6203 29.8498 56.5803C29.9098 56.2403 30.0198 55.9202 30.1798 55.6302C30.2798 55.4302 30.3998 55.2403 30.5398 55.0703C30.5898 55.0003 30.6398 54.9402 30.6998 54.8802L30.8398 54.7402C30.8398 54.7402 30.9198 54.6702 30.9598 54.6302C30.9798 54.6102 30.9898 54.6003 31.0098 54.5803C31.1098 54.4903 31.2198 54.4102 31.3298 54.3402C31.3598 54.3202 31.3798 54.3103 31.3998 54.2903C31.9198 53.9703 32.5298 53.7802 33.1798 53.7802C33.7898 53.7802 34.3598 53.9402 34.8498 54.2202C34.9398 54.2702 35.0298 54.3303 35.1198 54.3903C35.4298 54.6103 35.7098 54.8803 35.9298 55.2003C36.0598 55.3803 36.1698 55.5702 36.2598 55.7702L36.2398 55.7903Z" fill="#FF5545"/>
<g style="mix-blend-mode:multiply">
<path d="M32.15 57.6802C32.14 57.7502 32.13 57.8203 32.11 57.8903C31.89 57.9103 31.67 57.9203 31.45 57.9203C30.98 57.9203 30.53 57.8702 30.09 57.7802C30 57.7602 29.9 57.7402 29.81 57.7102C28.29 57.3102 26.99 56.3803 26.13 55.1103C26.3 54.8903 26.49 54.7002 26.71 54.5302C27.05 54.2702 27.43 54.0603 27.85 53.9503C28.09 53.8803 28.35 53.8303 28.61 53.8203C28.67 53.8203 28.74 53.8203 28.8 53.8203C29.63 53.8203 30.39 54.1203 30.98 54.6103C30.99 54.6203 31.01 54.6302 31.02 54.6502C31.1 54.7202 31.17 54.7903 31.24 54.8603C31.24 54.8603 31.24 54.8602 31.25 54.8702C31.26 54.8902 31.28 54.9003 31.29 54.9203C31.18 54.9803 31.08 55.0502 30.99 55.1302C30.95 55.1002 30.91 55.0703 30.87 55.0403H30.86C30.86 55.0403 30.79 54.9802 30.75 54.9602C30.72 54.9402 30.69 54.9302 30.67 54.9102C30.33 54.7202 29.95 54.6103 29.54 54.6103C29.49 54.6103 29.45 54.6103 29.41 54.6103C29.3 54.6103 29.2 54.6302 29.1 54.6502C28.93 54.6802 28.77 54.7302 28.61 54.8102C28.38 54.9102 28.18 55.0502 28 55.2102C27.92 55.2802 27.84 55.3602 27.78 55.4402C27.78 55.4402 27.77 55.4502 27.76 55.4602C27.74 55.4802 27.73 55.5002 27.71 55.5202C27.67 55.5702 27.64 55.6202 27.6 55.6802C27.47 55.8902 27.37 56.1202 27.32 56.3702C27.92 56.8502 28.61 57.2302 29.36 57.4602C29.5 57.5102 29.64 57.5403 29.78 57.5803C29.83 57.5903 29.87 57.6003 29.91 57.6103C29.95 57.6203 30 57.6303 30.05 57.6403H30.12C30.19 57.6703 30.25 57.6802 30.32 57.6902C30.62 57.7402 30.93 57.7603 31.25 57.7603C31.37 57.7603 31.49 57.7603 31.61 57.7603C31.79 57.7503 31.97 57.7302 32.14 57.7102L32.15 57.6802Z" fill="#FFA19C"/>
<path d="M36.2401 55.79C35.2801 56.85 33.9801 57.58 32.5201 57.82C32.39 57.84 32.2501 57.86 32.1201 57.88C31.9001 57.9 31.6801 57.91 31.4601 57.91C30.9901 57.91 30.5401 57.86 30.1001 57.77C30.0101 57.75 29.91 57.73 29.82 57.7C29.82 57.65 29.81 57.61 29.8 57.56C29.85 57.57 29.8901 57.58 29.9301 57.59C29.9801 57.6 30.02 57.61 30.07 57.62C30.07 57.62 30.1001 57.62 30.1201 57.63H30.14C30.21 57.65 30.2701 57.66 30.3401 57.67C30.6401 57.72 30.9501 57.74 31.2701 57.74C31.3901 57.74 31.5101 57.74 31.6301 57.74C31.8101 57.73 31.9901 57.71 32.1601 57.69C32.1901 57.69 32.2101 57.69 32.2401 57.68C32.3501 57.66 32.46 57.64 32.57 57.62C33.35 57.46 34.0701 57.15 34.7101 56.73C34.7001 56.53 34.6601 56.33 34.6001 56.15C34.5001 55.84 34.33 55.56 34.11 55.33C34.04 55.25 33.9701 55.18 33.8801 55.11C33.8401 55.07 33.7901 55.04 33.7401 55.01C33.3701 54.75 32.9201 54.6 32.4401 54.6C32.1701 54.6 31.9201 54.64 31.6801 54.73C31.5901 54.76 31.5101 54.8 31.4301 54.84H31.42C31.42 54.84 31.34 54.89 31.3 54.91H31.29C31.18 54.98 31.0801 55.05 30.9901 55.13C30.9501 55.1 30.9101 55.07 30.8701 55.04H30.86C30.86 55.04 30.7901 54.98 30.7501 54.96C30.7201 54.94 30.69 54.93 30.67 54.91L30.8101 54.77C30.8101 54.77 30.8901 54.7 30.9301 54.66C30.9501 54.64 30.96 54.63 30.98 54.61C31.08 54.52 31.19 54.44 31.3 54.37C31.33 54.35 31.3501 54.34 31.3701 54.32C31.8901 54 32.5001 53.81 33.1501 53.81C33.7601 53.81 34.33 53.97 34.82 54.25C34.91 54.3 35.0001 54.36 35.0901 54.42C35.4001 54.64 35.6801 54.91 35.9001 55.23C36.0301 55.41 36.14 55.6 36.23 55.8L36.2401 55.79Z" fill="#FFA19C"/>
</g>
<g opacity="0.6">
<g style="mix-blend-mode:screen">
<path d="M28.48 54.42C29.07 54.54 29.52 54.83 29.47 55.06C29.42 55.3 28.9 55.39 28.31 55.27C27.72 55.15 27.27 54.86 27.32 54.63C27.37 54.39 27.89 54.3 28.48 54.42Z" fill="white"/>
</g>
<g style="mix-blend-mode:screen">
<path d="M30.1999 54.81C30.4299 54.86 30.5699 55.08 30.5299 55.3C30.4799 55.53 30.2599 55.67 30.0399 55.63C29.8099 55.58 29.6699 55.36 29.7099 55.14C29.7599 54.91 29.9799 54.77 30.1999 54.81Z" fill="white"/>
</g>
</g>
<g style="mix-blend-mode:multiply">
<path d="M44.8344 30.0478C44.9044 30.3078 44.8644 30.5678 44.7444 30.7878C44.6244 31.0078 44.4144 31.1778 44.1544 31.2478L37.8244 33.0178C37.8244 33.0178 37.7744 33.0278 37.7444 33.0378C37.2544 33.1278 36.7544 32.8378 36.6244 32.3378C36.5544 32.0778 36.5944 31.8178 36.7144 31.5978C36.8344 31.3778 37.0444 31.2078 37.3044 31.1378L43.6344 29.3678C44.1544 29.2178 44.6944 29.5278 44.8344 30.0478Z" fill="#C9B3A9"/>
</g>
<path d="M44.2444 29.7178C44.3144 29.9778 44.2744 30.2378 44.1544 30.4578C44.0344 30.6778 43.8244 30.8479 43.5644 30.9179L37.2344 32.6878C37.2344 32.6878 37.1844 32.6978 37.1544 32.7078C36.6644 32.7978 36.1644 32.5078 36.0344 32.0078C35.9644 31.7478 36.0044 31.4878 36.1244 31.2678C36.2444 31.0478 36.4544 30.8778 36.7144 30.8078L43.0444 29.0378C43.5644 28.8878 44.1044 29.1978 44.2444 29.7178Z" fill="#282828"/>
<path d="M44.2044 29.6078C44.2044 29.6078 44.1644 29.5278 44.1444 29.4878C44.1344 29.4678 44.1244 29.4478 44.1044 29.4278C44.1044 29.4278 44.0644 29.3678 44.0444 29.3478C43.9844 29.2778 43.9144 29.2178 43.8444 29.1678L43.7844 29.1278C43.7844 29.1278 43.7444 29.1078 43.7244 29.0978C43.7044 29.0978 43.6844 29.0778 43.6744 29.0778C43.6244 29.0578 43.5744 29.0378 43.5244 29.0278C43.4944 29.0278 43.4644 29.0178 43.4344 29.0078C43.4044 29.0078 43.3744 29.0078 43.3344 29.0078C43.3044 29.0078 43.2844 29.0078 43.2544 29.0078C43.2444 29.0078 43.2244 29.0078 43.2144 29.0078C43.1944 29.0078 43.1845 29.0078 43.1645 29.0078C43.1445 29.0078 43.1344 29.0078 43.1244 29.0078C43.0944 29.0078 43.0744 29.0178 43.0444 29.0278L36.7144 30.7978C36.6544 30.8178 36.5944 30.8378 36.5344 30.8678C36.5144 30.8678 36.4944 30.8878 36.4844 30.8978C36.4244 30.9378 36.3644 30.9778 36.3144 31.0278C36.2944 31.0478 36.2744 31.0578 36.2644 31.0778V31.0978C36.2644 31.0978 36.2144 31.1378 36.1944 31.1578C36.1744 31.1778 36.1644 31.2078 36.1444 31.2278C36.1444 31.2278 36.1344 31.2478 36.1244 31.2578C36.0044 31.4778 35.9644 31.7378 36.0344 31.9978C36.0444 32.0378 36.0544 32.0678 36.0744 32.1078C36.0744 32.1278 36.0944 32.1478 36.1044 32.1678C36.1044 32.1878 36.1244 32.2078 36.1344 32.2278C36.1344 32.2378 36.1444 32.2578 36.1544 32.2678C36.1744 32.2978 36.1944 32.3278 36.2144 32.3478C36.2244 32.3678 36.2344 32.3778 36.2544 32.3978C36.2644 32.4178 36.2844 32.4278 36.3044 32.4478C36.3144 32.4578 36.3244 32.4678 36.3344 32.4778C36.3644 32.5078 36.4044 32.5378 36.4444 32.5578C36.4644 32.5578 36.4744 32.5778 36.4944 32.5878C36.5544 32.6278 36.6244 32.6578 36.6944 32.6778C36.7144 32.6778 36.7344 32.6878 36.7644 32.6978C36.7844 32.6978 36.8044 32.6978 36.8244 32.7078H36.8344C36.8344 32.7078 36.8744 32.7078 36.9044 32.7078C36.9044 32.7078 36.9244 32.7078 36.9344 32.7078C36.9544 32.7078 36.9744 32.7078 36.9944 32.7078C37.0544 32.7078 37.1045 32.7078 37.1645 32.6878C37.1945 32.6878 37.2144 32.6778 37.2444 32.6678L43.5744 30.8978C43.5744 30.8978 43.6244 30.8778 43.6544 30.8778L43.6944 30.8578L43.7444 30.8378C43.7444 30.8378 43.8144 30.8078 43.8444 30.7878C43.8444 30.7878 43.8944 30.7478 43.9244 30.7278C43.9544 30.7078 43.9744 30.6878 43.9944 30.6678C44.0144 30.6478 44.0344 30.6278 44.0544 30.6078C44.0944 30.5578 44.1345 30.5078 44.1645 30.4478C44.2845 30.2278 44.3244 29.9678 44.2544 29.7078C44.2544 29.6778 44.2344 29.6378 44.2144 29.6078H44.2044ZM42.7244 30.2178C42.6744 30.3178 42.5844 30.3878 42.4644 30.4178L37.3644 31.8478C37.1344 31.9078 36.9044 31.7778 36.8344 31.5478C36.8344 31.5278 36.8344 31.5078 36.8244 31.4978C36.8244 31.4778 36.8244 31.4578 36.8244 31.4378C36.8244 31.3678 36.8444 31.2878 36.8744 31.2278C36.9244 31.1278 37.0144 31.0578 37.1344 31.0278L42.2344 29.5978C42.3644 29.5578 42.4944 29.5878 42.5944 29.6578C42.6744 29.7078 42.7344 29.7978 42.7644 29.8978C42.7944 30.0078 42.7744 30.1278 42.7244 30.2278V30.2178Z" fill="black"/>
<g style="mix-blend-mode:screen" opacity="0.6">
<path d="M38.9144 30.3378C39.3044 30.2278 39.6544 30.2878 39.7044 30.4678C39.7544 30.6478 39.4844 30.8778 39.0944 30.9878C38.7044 31.0978 38.3544 31.0378 38.3044 30.8578C38.2544 30.6778 38.5244 30.4478 38.9144 30.3378Z" fill="#EDEEEF"/>
<path d="M40.0744 30.0078C40.2544 29.9578 40.4444 30.0578 40.4944 30.2378C40.5444 30.4178 40.4444 30.6078 40.2644 30.6578C40.0844 30.7078 39.8944 30.6078 39.8444 30.4278C39.7944 30.2478 39.8944 30.0578 40.0744 30.0078Z" fill="#EDEEEF"/>
</g>
<g style="mix-blend-mode:multiply">
<path d="M18.0344 30.0478C17.9644 30.3078 18.0044 30.5678 18.1244 30.7878C18.2444 31.0078 18.4544 31.1778 18.7144 31.2478L25.0444 33.0178C25.0444 33.0178 25.0944 33.0278 25.1244 33.0378C25.6144 33.1278 26.1144 32.8378 26.2444 32.3378C26.3144 32.0778 26.2744 31.8178 26.1544 31.5978C26.0344 31.3778 25.8244 31.2078 25.5644 31.1378L19.2344 29.3678C18.7144 29.2178 18.1744 29.5278 18.0344 30.0478Z" fill="#C9B3A9"/>
</g>
<path d="M18.6344 29.7178C18.5644 29.9778 18.6044 30.2378 18.7244 30.4578C18.8444 30.6778 19.0544 30.8479 19.3144 30.9179L25.6444 32.6878C25.6444 32.6878 25.6944 32.6978 25.7244 32.7078C26.2144 32.7978 26.7144 32.5078 26.8444 32.0078C26.9144 31.7478 26.8744 31.4878 26.7544 31.2678C26.6344 31.0478 26.4244 30.8778 26.1644 30.8078L19.8344 29.0378C19.3144 28.8878 18.7744 29.1978 18.6344 29.7178Z" fill="#282828"/>
<path d="M18.6344 29.7178C18.5644 29.9778 18.6044 30.2378 18.7244 30.4578C18.7544 30.5178 18.7944 30.5678 18.8344 30.6178C18.8544 30.6378 18.8744 30.6578 18.8944 30.6778C18.9144 30.6978 18.9444 30.7178 18.9644 30.7378C18.9844 30.7578 19.0144 30.7778 19.0444 30.7978C19.0444 30.7978 19.1044 30.8378 19.1444 30.8578L19.1944 30.8778L19.2344 30.8978C19.2344 30.8978 19.2844 30.9178 19.3144 30.9178L25.6444 32.6878C25.6444 32.6878 25.6944 32.6978 25.7244 32.7078C25.7844 32.7178 25.8344 32.7278 25.8944 32.7278C25.9144 32.7278 25.9344 32.7278 25.9544 32.7278C25.9544 32.7278 25.9744 32.7278 25.9844 32.7278C26.0044 32.7278 26.0244 32.7278 26.0544 32.7278H26.0644C26.0644 32.7278 26.1044 32.7278 26.1244 32.7178C26.1444 32.7178 26.1644 32.7078 26.1944 32.6978C26.2644 32.6778 26.3344 32.6478 26.3944 32.6078C26.4144 32.6078 26.4244 32.5878 26.4444 32.5778C26.4844 32.5478 26.5244 32.5278 26.5544 32.4978C26.5644 32.4878 26.5744 32.4778 26.5844 32.4678C26.6044 32.4478 26.6144 32.4378 26.6344 32.4178C26.6544 32.4078 26.6644 32.3878 26.6744 32.3678C26.6944 32.3378 26.7144 32.3178 26.7344 32.2878C26.7344 32.2778 26.7544 32.2578 26.7544 32.2478C26.7644 32.2278 26.7744 32.2078 26.7844 32.1878C26.7944 32.1678 26.8044 32.1478 26.8144 32.1278C26.8344 32.0978 26.8444 32.0578 26.8544 32.0178C26.9244 31.7578 26.8844 31.4878 26.7644 31.2778C26.7644 31.2678 26.7544 31.2578 26.7444 31.2478C26.7244 31.2278 26.7144 31.1978 26.6944 31.1778C26.6744 31.1578 26.6644 31.1378 26.6444 31.1178V31.0978C26.6444 31.0978 26.5944 31.0578 26.5744 31.0478C26.5244 30.9978 26.4644 30.9578 26.4044 30.9178C26.3844 30.9078 26.3744 30.8978 26.3544 30.8878C26.3044 30.8578 26.2444 30.8378 26.1744 30.8178L19.8444 29.0478C19.8444 29.0478 19.7944 29.0378 19.7644 29.0278C19.7544 29.0278 19.7344 29.0278 19.7244 29.0278C19.7044 29.0278 19.6944 29.0278 19.6744 29.0278C19.6644 29.0278 19.6444 29.0278 19.6344 29.0278C19.6044 29.0278 19.5844 29.0278 19.5544 29.0278C19.5244 29.0278 19.4944 29.0278 19.4544 29.0278C19.4244 29.0278 19.3944 29.0278 19.3644 29.0478C19.3144 29.0578 19.2644 29.0778 19.2144 29.0978C19.1944 29.0978 19.1744 29.1178 19.1644 29.1178C19.1444 29.1278 19.1244 29.1378 19.1044 29.1478L19.0444 29.1878C18.9644 29.2378 18.8944 29.2978 18.8444 29.3678C18.8244 29.3878 18.8044 29.4178 18.7844 29.4378C18.7844 29.4378 18.7644 29.4878 18.7444 29.5078C18.7244 29.5478 18.7044 29.5878 18.6844 29.6278C18.6744 29.6578 18.6544 29.6978 18.6444 29.7278L18.6344 29.7178ZM20.1144 29.8978C20.1444 29.7978 20.2044 29.7178 20.2844 29.6578C20.3844 29.5878 20.5144 29.5678 20.6444 29.5978L25.7444 31.0278C25.8544 31.0578 25.9444 31.1378 26.0044 31.2278C26.0344 31.2878 26.0544 31.3678 26.0544 31.4378C26.0544 31.4578 26.0544 31.4778 26.0544 31.4978C26.0544 31.5178 26.0544 31.5378 26.0444 31.5478C25.9844 31.7778 25.7444 31.9078 25.5144 31.8478L20.4144 30.4178C20.3044 30.3878 20.2144 30.3078 20.1544 30.2178C20.1044 30.1178 20.0844 30.0078 20.1144 29.8878V29.8978Z" fill="black"/>
<g style="mix-blend-mode:screen" opacity="0.6">
<path d="M23.9644 30.3378C23.5744 30.2278 23.2244 30.2878 23.1744 30.4678C23.1244 30.6478 23.3944 30.8778 23.7844 30.9878C24.1744 31.0978 24.5244 31.0378 24.5744 30.8578C24.6244 30.6778 24.3544 30.4478 23.9644 30.3378Z" fill="#EDEEEF"/>
<path d="M22.8044 30.0078C22.6244 29.9578 22.4344 30.0578 22.3844 30.2378C22.3344 30.4178 22.4344 30.6078 22.6144 30.6578C22.7944 30.7078 22.9845 30.6078 23.0345 30.4278C23.0845 30.2478 22.9844 30.0578 22.8044 30.0078Z" fill="#EDEEEF"/>
</g>
<g style="mix-blend-mode:multiply">
<path d="M48.2 39.6C48.2 42.6904 45.6904 45.2 42.6 45.2C39.5096 45.2 37 42.6904 37 39.6C37 36.5096 39.5096 34 42.6 34C45.6904 34 48.2 36.5096 48.2 39.6Z" fill="#F66B04"/>
</g>
<g style="mix-blend-mode:multiply">
<path d="M27.2 39.6C27.2 42.6904 24.6904 45.2 21.6 45.2C18.5096 45.2 16 42.6904 16 39.6C16 36.5096 18.5096 34 21.6 34C24.6904 34 27.2 36.5096 27.2 39.6Z" fill="#F66B04"/>
</g>
<path d="M47 39C47 41.7621 44.7621 44 42 44C39.2379 44 37 41.7621 37 39C37 36.2379 39.2379 34 42 34C44.7621 34 47 36.2379 47 39Z" fill="white" stroke="#232323"/>
<path d="M26 39C26 41.7621 23.7621 44 21 44C18.2379 44 16 41.7621 16 39C16 36.2379 18.2379 34 21 34C23.7621 34 26 36.2379 26 39Z" fill="white" stroke="#232323"/>
</g>
<defs>
<radialGradient id="paint0_radial_1457_93291" cx="0" cy="0" r="1" gradientUnits="userSpaceOnUse" gradientTransform="translate(32.132 35.4709) rotate(90) scale(42.6855 30.6047)">
<stop stop-color="#F99406"/>
<stop offset="0.476332" stop-color="#F66B04"/>
<stop offset="1" stop-color="#ED2D00"/>
</radialGradient>
<clipPath id="clip0_1457_93291">
<rect width="64" height="64" fill="white"/>
</clipPath>
</defs>
</svg>
