<svg width="64" height="64" viewBox="0 0 64 64" fill="none" xmlns="http://www.w3.org/2000/svg">
<g clip-path="url(#clip0_1457_93340)">
<g style="mix-blend-mode:multiply">
<path d="M52.4465 61.9221C52.4465 63.0682 43.372 64.0002 32.1816 64.0002C20.9912 64.0002 11.9167 63.0682 11.9167 61.9221C11.9167 60.776 20.9912 59.844 32.1816 59.844C43.372 59.844 52.4465 60.776 52.4465 61.9221Z" fill="#E6E6E6"/>
</g>
<g style="mix-blend-mode:multiply">
<path d="M45.0904 61.519C45.0904 62.2495 39.3094 62.8414 32.1808 62.8414C25.0522 62.8414 19.2712 62.2495 19.2712 61.519C19.2712 60.7885 25.0522 60.1965 32.1808 60.1965C39.3094 60.1965 45.0904 60.7885 45.0904 61.519Z" fill="#999999"/>
</g>
<path d="M25.1384 11.476C26.8315 9.53325 31.2576 4.12841 31.9995 6.10352e-05C32.7414 4.12841 37.1685 9.53325 38.8616 11.476C38.8235 9.32154 38.6396 7.16085 38.2148 5.18697C38.2148 5.18697 41.8038 12.2917 44.6954 21.3205C44.9616 21.7002 45.2282 22.0804 45.488 22.46C45.6212 20.0316 45.5895 17.5782 45.2407 15.3304C45.2407 15.3304 48.1259 21.9619 50.4405 30.5237C50.656 30.9285 50.859 31.3332 51.0555 31.7379C51.677 28.4564 51.677 25.9844 51.677 25.9844C54.8095 32.4665 54.0485 39.3035 53.5032 42.2114C53.4715 42.6037 53.4335 42.9959 53.3764 43.382C53.3066 43.8926 53.2179 44.3907 53.1101 44.8889C51.9179 50.5054 48.5001 55.3187 43.8013 58.3948C43.6111 58.5193 43.4208 58.6376 43.2306 58.7559C39.9586 60.7547 36.1212 61.9378 31.9995 62.0001C27.8778 61.9378 24.0414 60.7547 20.7694 58.7559C20.5792 58.6376 20.3889 58.5193 20.1987 58.3948C15.4999 55.3187 12.0821 50.5054 10.8899 44.8889C10.7821 44.3907 10.6934 43.8926 10.6236 43.382C10.5665 42.9959 10.5285 42.6037 10.4968 42.2114C9.95145 39.3035 9.19052 32.4665 12.323 25.9844C12.323 25.9844 12.323 28.4564 12.9445 31.7379C13.141 31.3332 13.3439 30.9285 13.5595 30.5237C15.8741 21.9619 18.7593 15.3304 18.7593 15.3304C18.4105 17.5782 18.3788 20.0316 18.512 22.46C18.7719 22.0802 19.0383 21.7004 19.3046 21.3205C22.1962 12.2917 25.7852 5.18697 25.7852 5.18697C25.3604 7.16085 25.1765 9.32154 25.1384 11.476Z" fill="#ED2D00"/>
<path opacity="0.8" d="M50.329 35.5606C49.8781 36.5832 49.4207 37.6057 48.9633 38.6283C48.4144 34.5657 47.8655 30.4962 47.3232 26.4336C46.8527 27.5184 46.3822 28.6031 45.9183 29.6878C44.1082 25.1209 42.2917 20.5471 40.4817 15.9801C40.6516 17.1754 40.828 18.3707 40.9979 19.559C37.221 16.4914 34.1433 12.4979 32 8.00006C29.8567 12.4979 26.7725 16.4914 23.0021 19.559C23.172 18.3638 23.3485 17.1685 23.5183 15.9801C21.7083 20.5471 19.8918 25.1209 18.0817 29.6878C17.6112 28.6031 17.1408 27.5115 16.6768 26.4336C16.1279 30.4962 15.579 34.5657 15.0367 38.6283C14.5858 37.6057 14.1284 36.5832 13.671 35.5606C12.0243 41.8065 13.4619 48.8607 17.3956 53.8353C20.9569 58.3331 26.4654 60.9932 32 61.0001C37.5346 60.9932 43.0497 58.3331 46.6044 53.8353C50.5381 48.8607 51.9757 41.7996 50.329 35.5606Z" fill="url(#paint0_radial_1457_93340)"/>
<path d="M47.0205 40.01C47.0205 43.33 44.3305 46.02 41.0105 46.02C37.6905 46.02 35.0005 43.33 35.0005 40.01C35.0005 36.69 37.6905 34 41.0105 34C44.3305 34 47.0205 36.69 47.0205 40.01Z" fill="white"/>
<path d="M29.0205 40.01C29.0205 43.33 26.3305 46.02 23.0105 46.02C19.6905 46.02 17.0005 43.33 17.0005 40.01C17.0005 36.69 19.6905 34 23.0105 34C26.3305 34 29.0205 36.69 29.0205 40.01Z" fill="white"/>
<path d="M26.2808 40.0199C26.2808 41.9299 24.7308 43.4899 22.8108 43.4899C20.8908 43.4899 19.3408 41.9399 19.3408 40.0199C19.3408 38.0999 20.8908 36.5499 22.8108 36.5499C24.7308 36.5499 26.2808 38.0999 26.2808 40.0199Z" fill="#282828"/>
<g style="mix-blend-mode:overlay">
<path d="M23.5708 39.6399C23.5708 40.6799 22.7308 41.5199 21.6908 41.5199C20.6508 41.5199 19.8108 40.6799 19.8108 39.6399C19.8108 38.5999 20.6508 37.7599 21.6908 37.7599C22.7308 37.7599 23.5708 38.5999 23.5708 39.6399Z" fill="#C9C9C9"/>
</g>
<g style="mix-blend-mode:multiply">
<path d="M22.8208 36.5499C20.9108 36.5499 19.3608 38.0999 19.3608 40.0199C19.3608 41.9399 20.9108 43.4799 22.8208 43.4799C24.7308 43.4799 26.2908 41.9299 26.2908 40.0199C26.2908 38.1099 24.7408 36.5499 22.8208 36.5499ZM22.0708 42.1299C20.7008 42.1299 19.5909 41.0199 19.5909 39.6499C19.5909 38.2799 20.7008 37.1699 22.0708 37.1699C23.4408 37.1699 24.5508 38.2799 24.5508 39.6499C24.5508 41.0199 23.4408 42.1299 22.0708 42.1299Z" fill="black"/>
</g>
<path d="M22.5808 39.2699C22.5808 39.8299 22.1208 40.2899 21.5608 40.2899C21.0008 40.2899 20.5408 39.8299 20.5408 39.2699C20.5408 38.7099 21.0008 38.2499 21.5608 38.2499C22.1208 38.2499 22.5808 38.7099 22.5808 39.2699Z" fill="white"/>
<path d="M24.7207 42.0699C24.7207 42.3999 24.4508 42.6699 24.1208 42.6699C23.7908 42.6699 23.5208 42.3999 23.5208 42.0699C23.5208 41.7399 23.7908 41.4699 24.1208 41.4699C24.4508 41.4699 24.7207 41.7399 24.7207 42.0699Z" fill="white"/>
<g style="mix-blend-mode:screen" opacity="0.3">
<path d="M21.4208 41.7299C20.8408 41.6599 20.4008 41.4199 20.4308 41.1899C20.4608 40.9599 20.9408 40.8299 21.5208 40.8899C22.1008 40.9599 22.5408 41.1999 22.5208 41.4299C22.4908 41.6599 22.0108 41.7899 21.4308 41.7299H21.4208Z" fill="#BFBFBF"/>
</g>
<path d="M44.6607 40.0199C44.6607 41.9299 43.1107 43.4899 41.1907 43.4899C39.2707 43.4899 37.7207 41.9399 37.7207 40.0199C37.7207 38.0999 39.2707 36.5499 41.1907 36.5499C43.1107 36.5499 44.6607 38.0999 44.6607 40.0199Z" fill="#282828"/>
<g style="mix-blend-mode:overlay">
<path d="M40.0807 41.5199C41.119 41.5199 41.9607 40.6782 41.9607 39.6399C41.9607 38.6016 41.119 37.7599 40.0807 37.7599C39.0424 37.7599 38.2007 38.6016 38.2007 39.6399C38.2007 40.6782 39.0424 41.5199 40.0807 41.5199Z" fill="#C9C9C9"/>
</g>
<g style="mix-blend-mode:multiply">
<path d="M41.1907 36.5499C39.2807 36.5499 37.7307 38.0999 37.7307 40.0199C37.7307 41.9399 39.2807 43.4799 41.1907 43.4799C43.1007 43.4799 44.6607 41.9299 44.6607 40.0199C44.6607 38.1099 43.1107 36.5499 41.1907 36.5499ZM40.4407 42.1299C39.0707 42.1299 37.9607 41.0199 37.9607 39.6499C37.9607 38.2799 39.0707 37.1699 40.4407 37.1699C41.8107 37.1699 42.9207 38.2799 42.9207 39.6499C42.9207 41.0199 41.8107 42.1299 40.4407 42.1299Z" fill="black"/>
</g>
<path d="M40.9607 39.2699C40.9607 39.8299 40.5007 40.2899 39.9407 40.2899C39.3807 40.2899 38.9207 39.8299 38.9207 39.2699C38.9207 38.7099 39.3807 38.2499 39.9407 38.2499C40.5007 38.2499 40.9607 38.7099 40.9607 39.2699Z" fill="white"/>
<path d="M43.1008 42.0699C43.1008 42.3999 42.8307 42.6699 42.5007 42.6699C42.1707 42.6699 41.9008 42.3999 41.9008 42.0699C41.9008 41.7399 42.1707 41.4699 42.5007 41.4699C42.8307 41.4699 43.1008 41.7399 43.1008 42.0699Z" fill="white"/>
<g style="mix-blend-mode:screen" opacity="0.3">
<path d="M39.8005 41.7297C39.2205 41.6597 38.7805 41.4197 38.8005 41.1897C38.8305 40.9597 39.3105 40.8297 39.8905 40.8897C40.4705 40.9597 40.9105 41.1997 40.8905 41.4297C40.8605 41.6597 40.3805 41.7897 39.8005 41.7297Z" fill="#BFBFBF"/>
</g>
<g style="mix-blend-mode:multiply">
<path d="M45.4762 31.2075C45.3762 31.4375 45.1962 31.5975 44.9862 31.6875C44.7762 31.7775 44.5262 31.7775 44.3062 31.6775L38.7762 29.2875C38.7762 29.2875 38.7262 29.2675 38.7062 29.2575C38.3062 29.0375 38.1262 28.5475 38.3062 28.1175C38.4062 27.8875 38.5862 27.7275 38.7962 27.6375C39.0062 27.5475 39.2562 27.5475 39.4762 27.6375L45.0062 30.0275C45.4562 30.2275 45.6662 30.7475 45.4762 31.2075Z" fill="#C9B3A9"/>
</g>
<path d="M45.2462 30.6275C45.1462 30.8575 44.9662 31.0175 44.7562 31.1075C44.5462 31.1975 44.2962 31.1975 44.0762 31.1075L38.5462 28.7175C38.5462 28.7175 38.4962 28.6975 38.4762 28.6875C38.0662 28.4675 37.8862 27.9775 38.0762 27.5475C38.1762 27.3175 38.3562 27.1575 38.5662 27.0675C38.7762 26.9775 39.0262 26.9775 39.2462 27.0675L44.7762 29.4575C45.2262 29.6575 45.4362 30.1775 45.2462 30.6375V30.6275Z" fill="#282828"/>
<path d="M45.2762 30.5375C45.2762 30.5375 45.2962 30.4575 45.3062 30.4175C45.3062 30.3975 45.3062 30.3775 45.3062 30.3575C45.3062 30.3575 45.3062 30.2875 45.3062 30.2575C45.3062 30.1775 45.2862 30.0875 45.2662 30.0075L45.2462 29.9475C45.2462 29.9475 45.2262 29.9075 45.2262 29.8875C45.2262 29.8675 45.2062 29.8575 45.2062 29.8375C45.1862 29.7975 45.1562 29.7575 45.1262 29.7175C45.1062 29.6975 45.0862 29.6775 45.0662 29.6475C45.0462 29.6275 45.0262 29.6075 45.0062 29.5875C44.9862 29.5675 44.9662 29.5575 44.9462 29.5475C44.9362 29.5475 44.9262 29.5375 44.9162 29.5275C44.9062 29.5275 44.8862 29.5075 44.8762 29.5075C44.8662 29.5075 44.8562 29.4975 44.8462 29.4875C44.8262 29.4775 44.8062 29.4675 44.7762 29.4575L39.2462 27.0675C39.1962 27.0475 39.1362 27.0275 39.0862 27.0175C39.0662 27.0175 39.0462 27.0175 39.0362 27.0075C38.9662 26.9975 38.9062 26.9975 38.8462 27.0075C38.8262 27.0075 38.7962 27.0075 38.7762 27.0075H38.7562C38.7562 27.0075 38.7062 27.0175 38.6862 27.0275C38.6562 27.0275 38.6362 27.0375 38.6062 27.0475C38.5962 27.0475 38.5862 27.0475 38.5762 27.0575C38.3662 27.1375 38.1862 27.3075 38.0862 27.5375C38.0762 27.5675 38.0562 27.5975 38.0562 27.6375C38.0562 27.6575 38.0462 27.6775 38.0362 27.6975C38.0362 27.7175 38.0362 27.7375 38.0262 27.7575C38.0262 27.7675 38.0262 27.7875 38.0262 27.7975C38.0262 27.8275 38.0262 27.8575 38.0262 27.8875C38.0262 27.9075 38.0262 27.9275 38.0262 27.9475C38.0262 27.9675 38.0262 27.9875 38.0262 28.0075C38.0262 28.0175 38.0262 28.0375 38.0262 28.0475C38.0262 28.0875 38.0462 28.1275 38.0562 28.1675C38.0562 28.1875 38.0662 28.1975 38.0762 28.2175C38.0962 28.2775 38.1262 28.3375 38.1662 28.3975C38.1762 28.4175 38.1862 28.4275 38.2062 28.4475C38.2162 28.4675 38.2362 28.4775 38.2462 28.4975C38.2462 28.4975 38.2762 28.5375 38.2862 28.5475C38.2862 28.5475 38.2962 28.5575 38.3062 28.5675C38.3162 28.5775 38.3362 28.5975 38.3462 28.6075C38.3862 28.6375 38.4262 28.6675 38.4762 28.6975C38.4962 28.7075 38.5262 28.7175 38.5462 28.7275L44.0762 31.1175C44.0762 31.1175 44.1262 31.1375 44.1462 31.1475H44.1862L44.2362 31.1675C44.2362 31.1675 44.3062 31.1775 44.3362 31.1875C44.3362 31.1875 44.3962 31.1875 44.4262 31.1875C44.4562 31.1875 44.4862 31.1875 44.5162 31.1875C44.5462 31.1875 44.5662 31.1875 44.5962 31.1775C44.6562 31.1675 44.7162 31.1475 44.7662 31.1275C44.9762 31.0475 45.1562 30.8775 45.2562 30.6475C45.2662 30.6175 45.2762 30.5875 45.2862 30.5575L45.2762 30.5375ZM43.8662 30.1175C43.7762 30.1575 43.6662 30.1575 43.5662 30.1175L39.1062 28.1875C38.9062 28.0975 38.8162 27.8675 38.9062 27.6775C38.9062 27.6575 38.9162 27.6475 38.9262 27.6275C38.9262 27.6075 38.9462 27.5975 38.9562 27.5875C38.9962 27.5375 39.0562 27.4975 39.1162 27.4675C39.2062 27.4275 39.3162 27.4275 39.4162 27.4675L43.8762 29.3975C43.9862 29.4475 44.0662 29.5375 44.0962 29.6475C44.1262 29.7375 44.1162 29.8275 44.0862 29.9175C44.0462 30.0175 43.9662 30.0875 43.8662 30.1275V30.1175Z" fill="black"/>
<g style="mix-blend-mode:screen" opacity="0.6">
<path d="M41.0862 27.9975C41.4262 28.1475 41.6463 28.3875 41.5763 28.5475C41.5063 28.7075 41.1762 28.7075 40.8462 28.5675C40.5062 28.4175 40.2863 28.1775 40.3563 28.0175C40.4263 27.8575 40.7562 27.8575 41.0862 27.9975Z" fill="#EDEEEF"/>
<path d="M42.1063 28.4375C42.2663 28.5075 42.3363 28.6875 42.2663 28.8475C42.1963 29.0075 42.0163 29.0775 41.8563 29.0075C41.6963 28.9375 41.6263 28.7575 41.6963 28.5975C41.7663 28.4375 41.9463 28.3675 42.1063 28.4375Z" fill="#EDEEEF"/>
</g>
<g style="mix-blend-mode:multiply">
<path d="M19.0705 31.22C19.1705 31.45 19.3505 31.61 19.5605 31.7C19.7705 31.79 20.0205 31.79 20.2405 31.7L25.7705 29.31C25.7705 29.31 25.8205 29.29 25.8405 29.28C26.2405 29.06 26.4305 28.57 26.2405 28.14C26.1405 27.91 25.9605 27.75 25.7505 27.66C25.5405 27.57 25.2905 27.57 25.0705 27.66L19.5405 30.05C19.0905 30.25 18.8805 30.77 19.0705 31.23V31.22Z" fill="#C9B3A9"/>
</g>
<path d="M19.3005 30.64C19.4005 30.87 19.5805 31.03 19.7905 31.12C20.0005 31.21 20.2505 31.21 20.4705 31.12L26.0005 28.73C26.0005 28.73 26.0505 28.71 26.0705 28.7C26.4805 28.48 26.6605 27.99 26.4705 27.56C26.3705 27.33 26.1905 27.17 25.9805 27.08C25.7705 26.99 25.5205 26.99 25.3005 27.08L19.7705 29.47C19.3205 29.67 19.1105 30.19 19.3005 30.65V30.64Z" fill="#282828"/>
<path d="M19.3007 30.64C19.4007 30.87 19.5807 31.03 19.7907 31.12C19.8407 31.14 19.9007 31.16 19.9607 31.17C19.9907 31.17 20.0107 31.17 20.0407 31.18C20.0707 31.18 20.1007 31.18 20.1307 31.18C20.1607 31.18 20.1907 31.18 20.2207 31.18C20.2207 31.18 20.2907 31.17 20.3207 31.16H20.3707L20.4107 31.14C20.4107 31.14 20.4607 31.12 20.4807 31.11L26.0107 28.72C26.0107 28.72 26.0607 28.7 26.0807 28.69C26.1307 28.67 26.1707 28.64 26.2107 28.6C26.2207 28.59 26.2407 28.58 26.2507 28.56C26.2507 28.56 26.2607 28.55 26.2707 28.54C26.2807 28.53 26.3007 28.51 26.3107 28.5C26.3107 28.5 26.3407 28.46 26.3507 28.45C26.3607 28.43 26.3707 28.42 26.3907 28.4C26.4307 28.34 26.4607 28.28 26.4807 28.22C26.4807 28.2 26.4907 28.19 26.5007 28.17C26.5107 28.13 26.5207 28.09 26.5307 28.05C26.5307 28.04 26.5307 28.02 26.5307 28.01C26.5307 27.99 26.5307 27.97 26.5307 27.95C26.5307 27.93 26.5307 27.91 26.5307 27.89C26.5307 27.86 26.5307 27.83 26.5307 27.8C26.5307 27.79 26.5307 27.77 26.5307 27.76C26.5307 27.74 26.5307 27.72 26.5207 27.7C26.5207 27.68 26.5207 27.66 26.5107 27.64C26.5107 27.61 26.4907 27.57 26.4807 27.54C26.3807 27.31 26.2007 27.15 25.9907 27.06C25.9807 27.06 25.9707 27.06 25.9607 27.05C25.9407 27.05 25.9107 27.03 25.8807 27.03C25.8607 27.03 25.8307 27.02 25.8107 27.01H25.7907C25.7907 27.01 25.7407 27.01 25.7207 27C25.6607 27 25.5907 27 25.5307 27C25.5107 27 25.4907 27 25.4807 27.01C25.4207 27.02 25.3707 27.04 25.3207 27.06L19.7907 29.45C19.7907 29.45 19.7507 29.47 19.7207 29.48C19.7107 29.48 19.7007 29.49 19.6907 29.5C19.6807 29.5 19.6607 29.52 19.6507 29.53C19.6407 29.53 19.6307 29.54 19.6207 29.55C19.6007 29.56 19.5807 29.58 19.5607 29.59C19.5407 29.61 19.5207 29.63 19.5007 29.65C19.4807 29.67 19.4607 29.69 19.4407 29.72C19.4107 29.76 19.3807 29.8 19.3607 29.84C19.3607 29.86 19.3407 29.87 19.3407 29.89C19.3407 29.91 19.3207 29.93 19.3207 29.95L19.3007 30.01C19.2807 30.09 19.2607 30.17 19.2607 30.26C19.2607 30.29 19.2607 30.32 19.2607 30.35C19.2607 30.35 19.2607 30.4 19.2607 30.43C19.2607 30.47 19.2707 30.51 19.2907 30.55C19.2907 30.58 19.3107 30.61 19.3207 30.64H19.3007ZM20.4607 29.92C20.4207 29.83 20.4207 29.74 20.4507 29.65C20.4807 29.54 20.5607 29.45 20.6707 29.4L25.1307 27.47C25.2307 27.43 25.3407 27.43 25.4307 27.47C25.4907 27.5 25.5507 27.54 25.5907 27.59C25.6007 27.6 25.6107 27.62 25.6207 27.63C25.6207 27.64 25.6407 27.66 25.6407 27.68C25.7307 27.88 25.6407 28.11 25.4407 28.19L20.9807 30.12C20.8807 30.16 20.7707 30.16 20.6807 30.12C20.5907 30.08 20.5107 30.01 20.4607 29.91V29.92Z" fill="black"/>
<g style="mix-blend-mode:screen" opacity="0.6">
<path d="M23.4605 28.01C23.1205 28.16 22.9005 28.4 22.9705 28.56C23.0405 28.72 23.3705 28.72 23.7005 28.58C24.0405 28.43 24.2605 28.19 24.1905 28.03C24.1205 27.87 23.7905 27.87 23.4605 28.01Z" fill="#EDEEEF"/>
<path d="M22.4405 28.45C22.2805 28.52 22.2105 28.7 22.2805 28.86C22.3505 29.02 22.5305 29.09 22.6905 29.02C22.8505 28.95 22.9205 28.77 22.8505 28.61C22.7805 28.45 22.6005 28.38 22.4405 28.45Z" fill="#EDEEEF"/>
</g>
<path d="M36.5563 54.43C36.0963 54.43 35.6863 54.11 35.5763 53.64C35.2363 52.12 33.8463 51.01 32.2863 51.01C30.7263 51.01 29.3363 52.11 28.9963 53.64C28.8763 54.18 28.3363 54.52 27.7963 54.4C27.2563 54.28 26.9163 53.74 27.0363 53.2C27.5963 50.73 29.7463 49 32.2863 49C34.8263 49 36.9863 50.73 37.5363 53.2C37.6563 53.74 37.3163 54.28 36.7763 54.4C36.7063 54.42 36.6263 54.42 36.5563 54.42V54.43Z" fill="#333333"/>
<g style="mix-blend-mode:multiply">
<g style="mix-blend-mode:multiply">
<path d="M37.3965 54.9098C36.8965 54.9098 36.4465 54.5598 36.3265 54.0598C35.9565 52.3998 34.4465 51.1998 32.7465 51.1998C31.0465 51.1998 29.5365 52.3998 29.1665 54.0598C29.0365 54.6498 28.4465 55.0198 27.8565 54.8898C27.2665 54.7598 26.8965 54.1698 27.0265 53.5798C27.6265 50.8898 29.9765 49.0098 32.7365 49.0098C35.4965 49.0098 37.8465 50.8898 38.4465 53.5798C38.5765 54.1698 38.2065 54.7498 37.6165 54.8898C37.5365 54.9098 37.4565 54.9198 37.3765 54.9198L37.3965 54.9098Z" fill="#F66B04"/>
</g>
</g>
<path d="M36.5563 54.43C36.0963 54.43 35.6863 54.11 35.5763 53.64C35.2363 52.12 33.8463 51.01 32.2863 51.01C30.7263 51.01 29.3363 52.11 28.9963 53.64C28.8763 54.18 28.3363 54.52 27.7963 54.4C27.2563 54.28 26.9163 53.74 27.0363 53.2C27.5963 50.73 29.7463 49 32.2863 49C34.8263 49 36.9863 50.73 37.5363 53.2C37.6563 53.74 37.3163 54.28 36.7763 54.4C36.7063 54.42 36.6263 54.42 36.5563 54.42V54.43Z" fill="black"/>
</g>
<defs>
<radialGradient id="paint0_radial_1457_93340" cx="0" cy="0" r="1" gradientUnits="userSpaceOnUse" gradientTransform="translate(32.132 35.4709) rotate(90) scale(42.6855 30.6047)">
<stop stop-color="#F99406"/>
<stop offset="0.476332" stop-color="#F66B04"/>
<stop offset="1" stop-color="#ED2D00"/>
</radialGradient>
<clipPath id="clip0_1457_93340">
<rect width="64" height="64" fill="white"/>
</clipPath>
</defs>
</svg>
