<svg width="64" height="64" viewBox="0 0 64 64" fill="none" xmlns="http://www.w3.org/2000/svg">
<g clip-path="url(#clip0_1457_93487)">
<g style="mix-blend-mode:multiply">
<path d="M52.4465 61.9221C52.4465 63.0682 43.372 64.0002 32.1816 64.0002C20.9912 64.0002 11.9167 63.0682 11.9167 61.9221C11.9167 60.776 20.9912 59.844 32.1816 59.844C43.372 59.844 52.4465 60.776 52.4465 61.9221Z" fill="#E6E6E6"/>
</g>
<g style="mix-blend-mode:multiply">
<path d="M45.0904 61.519C45.0904 62.2495 39.3094 62.8414 32.1808 62.8414C25.0522 62.8414 19.2712 62.2495 19.2712 61.519C19.2712 60.7885 25.0522 60.1965 32.1808 60.1965C39.3094 60.1965 45.0904 60.7885 45.0904 61.519Z" fill="#999999"/>
</g>
<path d="M25.1384 11.476C26.8315 9.53325 31.2576 4.12841 31.9995 6.10352e-05C32.7414 4.12841 37.1685 9.53325 38.8616 11.476C38.8235 9.32154 38.6396 7.16085 38.2148 5.18697C38.2148 5.18697 41.8038 12.2917 44.6954 21.3205C44.9616 21.7002 45.2282 22.0804 45.488 22.46C45.6212 20.0316 45.5895 17.5782 45.2407 15.3304C45.2407 15.3304 48.1259 21.9619 50.4405 30.5237C50.656 30.9285 50.859 31.3332 51.0555 31.7379C51.677 28.4564 51.677 25.9844 51.677 25.9844C54.8095 32.4665 54.0485 39.3035 53.5032 42.2114C53.4715 42.6037 53.4335 42.9959 53.3764 43.382C53.3066 43.8926 53.2179 44.3907 53.1101 44.8889C51.9179 50.5054 48.5001 55.3187 43.8013 58.3948C43.6111 58.5193 43.4208 58.6376 43.2306 58.7559C39.9586 60.7547 36.1212 61.9378 31.9995 62.0001C27.8778 61.9378 24.0414 60.7547 20.7694 58.7559C20.5792 58.6376 20.3889 58.5193 20.1987 58.3948C15.4999 55.3187 12.0821 50.5054 10.8899 44.8889C10.7821 44.3907 10.6934 43.8926 10.6236 43.382C10.5665 42.9959 10.5285 42.6037 10.4968 42.2114C9.95145 39.3035 9.19052 32.4665 12.323 25.9844C12.323 25.9844 12.323 28.4564 12.9445 31.7379C13.141 31.3332 13.3439 30.9285 13.5595 30.5237C15.8741 21.9619 18.7593 15.3304 18.7593 15.3304C18.4105 17.5782 18.3788 20.0316 18.512 22.46C18.7719 22.0802 19.0383 21.7004 19.3046 21.3205C22.1962 12.2917 25.7852 5.18697 25.7852 5.18697C25.3604 7.16085 25.1765 9.32154 25.1384 11.476Z" fill="url(#paint0_radial_1457_93487)"/>
<path d="M50.329 35.5606C49.8781 36.5832 49.4207 37.6057 48.9633 38.6283C48.4144 34.5657 47.8655 30.4962 47.3232 26.4336C46.8527 27.5184 46.3822 28.6031 45.9183 29.6878C44.1082 25.1209 42.2917 20.5471 40.4817 15.9801C40.6516 17.1754 40.828 18.3707 40.9979 19.559C37.221 16.4914 34.1433 12.4979 32 8.00006C29.8567 12.4979 26.7725 16.4914 23.0021 19.559C23.172 18.3638 23.3485 17.1685 23.5183 15.9801C21.7083 20.5471 19.8918 25.1209 18.0817 29.6878C17.6112 28.6031 17.1408 27.5115 16.6768 26.4336C16.1279 30.4962 15.579 34.5657 15.0367 38.6283C14.5858 37.6057 14.1284 36.5832 13.671 35.5606C12.0243 41.8065 13.4619 48.8607 17.3956 53.8353C20.9569 58.3331 26.4654 60.9932 32 61.0001C37.5346 60.9932 43.0497 58.3331 46.6044 53.8353C50.5381 48.8607 51.9757 41.7996 50.329 35.5606Z" fill="url(#paint1_radial_1457_93487)"/>
<path opacity="0.8" d="M50.329 35.5606C49.8781 36.5832 49.4207 37.6057 48.9633 38.6283C48.4144 34.5657 47.8655 30.4962 47.3232 26.4336C46.8527 27.5184 46.3822 28.6031 45.9183 29.6878C44.1082 25.1209 42.2917 20.5471 40.4817 15.9801C40.6516 17.1754 40.828 18.3707 40.9979 19.559C37.221 16.4914 34.1433 12.4979 32 8.00006C29.8567 12.4979 26.7725 16.4914 23.0021 19.559C23.172 18.3638 23.3485 17.1685 23.5183 15.9801C21.7083 20.5471 19.8918 25.1209 18.0817 29.6878C17.6112 28.6031 17.1408 27.5115 16.6768 26.4336C16.1279 30.4962 15.579 34.5657 15.0367 38.6283C14.5858 37.6057 14.1284 36.5832 13.671 35.5606C12.0243 41.8065 13.4619 48.8607 17.3956 53.8353C20.9569 58.3331 26.4654 60.9932 32 61.0001C37.5346 60.9932 43.0497 58.3331 46.6044 53.8353C50.5381 48.8607 51.9757 41.7996 50.329 35.5606Z" fill="#F99406"/>
<path d="M41.9829 48C41.9829 51.2198 40.4526 54.0858 38.0819 55.9169C37.8608 56.0849 37.6397 56.2441 37.4097 56.3945C36.0828 57.2525 34.5525 57.801 32.8984 57.9425C32.7569 57.9602 32.6065 57.969 32.4561 57.969C32.3058 57.9779 32.1554 57.9867 32.005 57.9867C31.4389 57.9867 30.8904 57.9425 30.3509 57.8452C30.2447 57.8275 30.1386 57.8098 30.0413 57.7921C28.281 57.4383 26.6799 56.6245 25.3796 55.4657C25.3619 55.4569 25.3531 55.4392 25.3354 55.4303C23.3009 53.5993 22.0271 50.9456 22.0271 48H42.0006H41.9829Z" fill="#282828"/>
<path d="M22.018 48C22.018 50.9456 23.3007 53.5993 25.3263 55.4303C25.344 55.4392 25.3617 55.4569 25.3706 55.4657C26.662 56.6157 28.2631 57.4383 30.0322 57.7921C30.1384 57.8098 30.2357 57.8364 30.3418 57.8452C30.8814 57.9337 31.4298 57.9867 31.9959 57.9867C32.1463 57.9867 32.3055 57.9867 32.4471 57.969C32.5975 57.969 32.739 57.9513 32.8894 57.9425C34.5435 57.801 36.0826 57.2525 37.4006 56.3945C37.6306 56.253 37.8606 56.0849 38.0729 55.9169C40.4435 54.0947 41.9738 51.2287 41.9738 48H22.0004H22.018ZM37.2414 54.2362C37.0822 54.4042 36.923 54.5635 36.7549 54.7227C36.4718 54.9792 36.1622 55.2092 35.8349 55.4215C35.658 55.5365 35.4723 55.6426 35.2865 55.7399C34.5966 56.1026 33.8447 56.3503 33.0486 56.4653C32.8982 56.4918 32.7478 56.5095 32.5975 56.5184C32.4029 56.5361 32.2083 56.5449 32.0136 56.5449C31.4121 56.5449 30.8195 56.4741 30.2533 56.3238C30.1649 56.3061 30.0853 56.2795 29.9968 56.253C29.1388 55.9965 28.3515 55.5896 27.6616 55.05C27.6616 55.05 27.6616 55.05 27.6527 55.05C27.237 54.7315 26.8655 54.3689 26.5382 53.962L26.4409 53.847C25.4855 52.644 24.9194 51.1225 24.9194 49.4595H39.099C39.099 51.3083 38.3914 52.9889 37.2414 54.245V54.2362Z" fill="black"/>
<g style="mix-blend-mode:multiply">
<path d="M33.0576 56.8102C33.0576 56.9959 33.0399 57.1729 33.0222 57.3586C33.0222 57.3675 33.0222 57.3763 33.0222 57.3852C33.0222 57.3852 33.0222 57.4028 33.0222 57.4117C33.0222 57.4205 33.0222 57.4294 33.0222 57.4471V57.4648C33.0133 57.5355 33.0045 57.6063 32.9868 57.677C32.9691 57.7478 32.9514 57.8186 32.9337 57.8893C32.9337 57.907 32.9249 57.9247 32.916 57.9424C32.7745 57.9601 32.6241 57.9689 32.4738 57.9689C32.3234 57.9778 32.173 57.9866 32.0226 57.9866C31.4565 57.9866 30.9081 57.9424 30.3685 57.8451C30.2623 57.8274 30.1562 57.8097 30.0589 57.792C28.2986 57.4382 26.6976 56.6244 25.3972 55.4656C25.3796 55.4568 25.3707 55.4391 25.353 55.4302C25.4238 55.2445 25.5034 55.0587 25.6095 54.8818C25.6361 54.8287 25.6715 54.7757 25.698 54.7226C25.9103 54.3865 26.158 54.0857 26.4587 53.8292C27.1133 53.2542 27.9448 52.8827 28.8736 52.8296C28.9532 52.8296 29.024 52.8296 29.0947 52.8296C30.0677 52.8296 30.9611 53.1746 31.66 53.7584C31.7926 53.8734 31.9165 53.9973 32.0315 54.1211L32.0757 54.1653C32.4914 54.6341 32.801 55.2003 32.9603 55.8372V55.8548C33.0133 56.0494 33.0487 56.2529 33.0664 56.4652C33.0753 56.5802 33.0841 56.704 33.0841 56.8279L33.0576 56.8102Z" fill="#C9B3A9"/>
<path d="M38.0821 55.9079C37.861 56.076 37.6398 56.2352 37.4098 56.3856C36.083 57.2436 34.5527 57.792 32.8986 57.9336C32.757 57.9512 32.6067 57.9601 32.4563 57.9601C32.3059 57.9689 32.1555 57.9778 32.0051 57.9778C31.439 57.9778 30.8906 57.9335 30.351 57.8362C30.3422 57.8009 30.3333 57.7655 30.3245 57.7301C30.3068 57.6593 30.2891 57.5886 30.2802 57.509C30.2714 57.4647 30.2625 57.4294 30.2537 57.3851C30.2537 57.3409 30.2449 57.3055 30.236 57.2613C30.2183 57.1109 30.2095 56.9605 30.2095 56.8101C30.2095 56.6598 30.2183 56.5006 30.236 56.359C30.236 56.3413 30.236 56.3236 30.236 56.3148C30.236 56.2882 30.236 56.2617 30.2449 56.2352C30.2979 55.8283 30.4218 55.4391 30.6075 55.0675C30.6518 54.9614 30.7048 54.8641 30.7668 54.7757C30.8375 54.6518 30.926 54.528 31.0144 54.413C31.094 54.3068 31.1825 54.2095 31.271 54.1122L31.3152 54.068C31.3152 54.068 31.3506 54.0238 31.3683 54.0061C31.4125 53.9619 31.4567 53.9176 31.4921 53.8822C31.5363 53.838 31.5806 53.8026 31.6248 53.7584C31.6513 53.7407 31.6778 53.723 31.6955 53.7053C32.3767 53.1481 33.2435 52.8208 34.19 52.8208C34.9242 52.8208 35.6142 53.0242 36.2068 53.3692C36.2953 53.4223 36.3926 53.4753 36.4722 53.5373C36.7464 53.7319 37.0029 53.9619 37.2241 54.2272C37.631 54.7049 37.9317 55.2799 38.0732 55.9079H38.0821Z" fill="#C9B3A9"/>
</g>
<g style="mix-blend-mode:multiply">
<path d="M33.0135 57.3851C33.0135 57.3851 33.0135 57.4028 33.0135 57.4117C33.0135 57.4205 33.0135 57.4293 33.0135 57.447V57.4647C33.0047 57.5355 32.9959 57.6063 32.9782 57.677C32.9605 57.7478 32.9428 57.8185 32.9251 57.8893C32.9251 57.907 32.9162 57.9247 32.9074 57.9424C32.7658 57.9601 32.6155 57.9689 32.4651 57.9689C32.3147 57.9778 32.1644 57.9866 32.014 57.9866C31.4479 57.9866 30.8994 57.9424 30.3599 57.8451C30.2537 57.8274 30.1476 57.8097 30.0503 57.792C28.29 57.4382 26.6889 56.6244 25.3886 55.4656C25.3709 55.4568 25.3621 55.4391 25.3444 55.4302C25.4151 55.2445 25.4947 55.0587 25.6009 54.8818C25.6274 54.8287 25.6628 54.7756 25.6893 54.7226C25.9016 54.3864 26.1493 54.0857 26.4501 53.8292C27.1046 53.2542 27.9361 52.8827 28.8649 52.8296C28.9445 52.8296 29.0153 52.8296 29.0861 52.8296C30.0591 52.8296 30.9525 53.1746 31.6513 53.7584C31.784 53.8734 31.9078 53.9972 32.0228 54.1211C31.9432 54.1741 31.8636 54.2184 31.784 54.2803H31.7751C31.7751 54.2803 31.7044 54.3422 31.669 54.3776C31.669 54.3776 31.6513 54.3687 31.6513 54.3599C31.6336 54.3422 31.6159 54.3245 31.5982 54.3157C31.5982 54.3157 31.5982 54.3068 31.5805 54.298C31.4832 54.2272 31.3948 54.1653 31.2886 54.1034C31.2709 54.0857 31.2532 54.0768 31.2267 54.068C30.8463 53.8557 30.4129 53.7407 29.9529 53.7407C29.8999 53.7407 29.8556 53.7407 29.8026 53.7407C29.5018 53.7584 29.2187 53.8203 28.9534 53.9353C28.5642 54.0945 28.2192 54.3422 27.9538 54.6606C27.8831 54.7491 27.8123 54.8376 27.7504 54.9349C27.7504 54.9349 27.7415 54.9526 27.7327 54.9526C27.7327 54.9703 27.715 54.9879 27.7062 55.0056L27.6885 55.0322C27.5469 55.271 27.4319 55.5452 27.37 55.8283H27.3788C28.0865 56.3944 28.8915 56.8367 29.776 57.1109C29.8468 57.1286 29.9087 57.1463 29.9706 57.164C30.0679 57.1905 30.1741 57.2171 30.2714 57.2436C30.4837 57.2967 30.7048 57.332 30.9171 57.3674C31.2798 57.4205 31.6336 57.4559 32.0051 57.4559C32.1467 57.4559 32.2882 57.4559 32.4209 57.4382C32.4828 57.4382 32.5359 57.4382 32.5978 57.4293C32.5978 57.4293 32.6509 57.4293 32.6862 57.4293C32.8101 57.4205 32.9251 57.4028 33.0401 57.3851H33.0135Z" fill="#C9B3A9"/>
<path d="M38.0821 55.9079C37.861 56.0759 37.6398 56.2352 37.4098 56.3855C36.083 57.2436 34.5527 57.792 32.8986 57.9335C32.757 57.9512 32.6067 57.9601 32.4563 57.9601C32.3059 57.9689 32.1555 57.9777 32.0051 57.9777C31.439 57.9777 30.8906 57.9335 30.351 57.8362C30.3422 57.8008 30.3333 57.7655 30.3245 57.7301C30.3068 57.6593 30.2891 57.5885 30.2802 57.5089C30.2714 57.4647 30.2626 57.4293 30.2626 57.3851C30.2626 57.3851 30.2449 57.3055 30.2449 57.2613C30.4572 57.3055 30.6783 57.3497 30.8906 57.3763C31.2533 57.4293 31.6071 57.4647 31.9786 57.4647C32.1201 57.4647 32.2617 57.4647 32.3944 57.447C32.4563 57.447 32.5094 57.447 32.5713 57.4382C32.5713 57.4382 32.6243 57.4382 32.6597 57.4382C32.7836 57.4293 32.8986 57.4116 33.0136 57.3939C34.1104 57.2436 35.1277 56.8455 36.0211 56.2617C36.0034 55.9609 35.9326 55.6779 35.8265 55.4125C35.6849 55.0498 35.4638 54.7314 35.1807 54.466C35.0923 54.3776 34.995 54.298 34.8888 54.2272C34.4554 53.9265 33.9247 53.7495 33.3585 53.7495C32.872 53.7495 32.4032 53.8822 32.0051 54.1122C31.9255 54.1653 31.8459 54.2095 31.7663 54.2714H31.7575C31.7575 54.2714 31.6867 54.3334 31.6513 54.3687C31.6513 54.3687 31.6336 54.3599 31.6336 54.351C31.6159 54.3333 31.5982 54.3157 31.5805 54.3068C31.5805 54.3068 31.5806 54.298 31.5629 54.2891C31.4656 54.2184 31.3771 54.1564 31.271 54.0945L31.3152 54.0503C31.3152 54.0503 31.3506 54.006 31.3683 53.9884C31.4125 53.9441 31.4567 53.8999 31.4921 53.8645C31.5363 53.8203 31.5806 53.7849 31.6248 53.7407C31.6513 53.723 31.6779 53.7053 31.6955 53.6876C32.3767 53.1303 33.2435 52.803 34.19 52.803C34.9242 52.803 35.6142 53.0065 36.2068 53.3515C36.2953 53.4045 36.3926 53.4576 36.4722 53.5195C36.7464 53.7141 37.0029 53.9441 37.2241 54.2095C37.631 54.6872 37.9317 55.2621 38.0733 55.8902L38.0821 55.9079Z" fill="#C9B3A9"/>
</g>
<path d="M32.6071 56.8984C32.6071 57.0842 32.5895 57.2611 32.5718 57.4291C32.5629 57.5176 32.5452 57.5972 32.5275 57.6768C32.5098 57.7564 32.4921 57.836 32.4745 57.9156C32.4745 57.9333 32.4745 57.951 32.4568 57.9687C32.3064 57.9776 32.156 57.9864 32.0056 57.9864C31.4395 57.9864 30.8911 57.9422 30.3515 57.8449C30.2454 57.8272 30.1392 57.8095 30.0419 57.7918C28.2816 57.438 26.6806 56.6242 25.3802 55.4654C25.451 55.2797 25.5483 55.1027 25.6545 54.9347C25.8933 54.5543 26.1852 54.227 26.539 53.9528C27.1228 53.4928 27.857 53.2009 28.6443 53.1567C28.7151 53.1567 28.7858 53.1567 28.8566 53.1567C29.7765 53.1567 30.6257 53.484 31.2803 54.0413C31.298 54.059 31.3068 54.0678 31.3245 54.0855C31.413 54.1563 31.4926 54.2359 31.5633 54.3243C31.5633 54.3243 31.5722 54.3243 31.581 54.342C31.5987 54.3597 31.6164 54.3774 31.6253 54.3951C32.041 54.8462 32.3506 55.4035 32.501 56.0138C32.5452 56.1819 32.5718 56.3588 32.5894 56.5357C32.6071 56.6684 32.6071 56.8011 32.6071 56.9338V56.8984Z" fill="#FF5545"/>
<path d="M37.4104 56.3854C36.0836 57.2434 34.5533 57.7918 32.8991 57.9334C32.7576 57.9511 32.6072 57.9599 32.4569 57.9599C32.3065 57.9687 32.1561 57.9776 32.0057 57.9776C31.4396 57.9776 30.8912 57.9334 30.3516 57.836C30.2454 57.8184 30.1393 57.8007 30.042 57.783C30.0243 57.7034 30.0066 57.6414 29.9978 57.5618C29.9801 57.4822 29.9712 57.3938 29.9624 57.3142C29.9624 57.2699 29.9535 57.2169 29.9447 57.1726C29.9447 57.0842 29.9447 56.9869 29.9447 56.8984C29.9447 56.7127 29.9535 56.5357 29.9801 56.35C29.9801 56.3146 29.9889 56.2704 29.9978 56.235C30.0597 55.8546 30.1835 55.5008 30.3604 55.1735C30.4666 54.9524 30.6081 54.7401 30.7585 54.5543C30.8116 54.4836 30.8735 54.4128 30.9354 54.342L31.0946 54.1828C31.0946 54.1828 31.1831 54.1032 31.2185 54.0678C31.2361 54.0501 31.2538 54.0324 31.2804 54.0147C31.3954 53.9174 31.5104 53.829 31.6431 53.7494C31.6696 53.7317 31.6961 53.714 31.7227 53.6963C32.2976 53.3336 32.9788 53.1302 33.7041 53.1302C34.5091 53.1302 35.2521 53.3867 35.8624 53.8113C36.2074 54.0501 36.517 54.3597 36.7647 54.7047C37.1097 55.1912 37.3485 55.7573 37.4281 56.3765L37.4104 56.3854Z" fill="#FF5545"/>
<g style="mix-blend-mode:multiply">
<path d="M32.5718 57.4472C32.5629 57.5268 32.5452 57.6065 32.5275 57.6861C32.5098 57.7657 32.4921 57.8453 32.4745 57.9249C32.4745 57.9426 32.4745 57.9603 32.4568 57.978C32.3064 57.9868 32.156 57.9956 32.0056 57.9956C31.4395 57.9956 30.8911 57.9514 30.3515 57.8541C30.2454 57.8364 30.1392 57.8188 30.0419 57.8011C28.2816 57.4472 26.6806 56.6334 25.3802 55.4747C25.451 55.2889 25.5483 55.112 25.6545 54.9439C25.8933 54.5635 26.1852 54.2362 26.539 53.962C27.1228 53.5021 27.857 53.2102 28.6443 53.1659C28.7151 53.1659 28.7858 53.1659 28.8566 53.1659C29.7765 53.1659 30.6257 53.4932 31.2803 54.0505C31.298 54.0682 31.3068 54.077 31.3245 54.0947C31.413 54.1655 31.4926 54.2451 31.5633 54.3336C31.5633 54.3336 31.5722 54.3335 31.581 54.3512C31.5987 54.3689 31.6164 54.3866 31.6253 54.4043C31.5014 54.4751 31.3953 54.5459 31.2891 54.6432C31.2449 54.6078 31.2007 54.5724 31.1565 54.537H31.1476C31.1476 54.537 31.068 54.4751 31.0238 54.4486C30.9972 54.4309 30.9619 54.4132 30.9353 54.3866C30.5638 54.1743 30.1303 54.0505 29.6792 54.0505C29.6261 54.0505 29.5819 54.0505 29.5377 54.0505C29.4227 54.0505 29.3077 54.0682 29.2015 54.0947C28.7327 54.1832 28.3082 54.4043 27.9809 54.7139C27.8924 54.7935 27.8128 54.882 27.7332 54.9704C27.7332 54.9704 27.7243 54.9881 27.7155 54.9881C27.6978 55.0058 27.6801 55.0324 27.6624 55.0589C27.627 55.112 27.5828 55.1739 27.5474 55.2358C27.4059 55.4746 27.2909 55.7312 27.2378 56.0054C27.9101 56.545 28.6708 56.9607 29.5023 57.2172C29.6615 57.2703 29.8119 57.3057 29.9711 57.3411C30.0684 57.3676 30.1746 57.3853 30.2719 57.4119C30.3692 57.4295 30.4753 57.4472 30.5726 57.4649C30.9088 57.518 31.2538 57.5357 31.5987 57.5357C31.7314 57.5357 31.8641 57.5357 31.9968 57.5357C32.2002 57.5268 32.3948 57.5003 32.5806 57.4738L32.5718 57.4472Z" fill="#FFA19C"/>
<path d="M37.4101 56.3857C36.0832 57.2437 34.5529 57.7921 32.8988 57.9337C32.7573 57.9514 32.6069 57.9602 32.4565 57.9602C32.3061 57.9691 32.1558 57.9779 32.0054 57.9779C31.4393 57.9779 30.8908 57.9337 30.3512 57.8364C30.2451 57.8187 30.1389 57.801 30.0416 57.7833C30.024 57.7037 30.0063 57.6418 29.9974 57.5621C29.9797 57.4825 29.9709 57.3941 29.962 57.3145C30.0593 57.341 30.1655 57.3587 30.2628 57.3764C30.3601 57.3941 30.4662 57.4118 30.5635 57.4295C30.8997 57.4825 31.2447 57.5002 31.5896 57.5002C31.7223 57.5002 31.855 57.5002 31.9877 57.5002C32.1911 57.4914 32.3858 57.4649 32.5715 57.4383C32.5981 57.4383 32.6334 57.4383 32.6599 57.4206C32.7838 57.4029 32.8988 57.3852 33.0226 57.3499C33.8895 57.1729 34.6945 56.8368 35.4021 56.368C35.3844 56.1468 35.349 55.9257 35.2783 55.7223C35.1633 55.3773 34.9775 55.0677 34.7387 54.8112C34.6148 54.6785 34.4822 54.5546 34.3406 54.4573C33.9337 54.1654 33.4295 54.0062 32.8988 54.0062C32.598 54.0062 32.315 54.0593 32.0496 54.1477C31.9523 54.1831 31.8638 54.2185 31.7754 54.2627H31.7666C31.7666 54.2627 31.6781 54.3158 31.6338 54.3423H31.625C31.5012 54.4131 31.395 54.4927 31.2889 54.59C31.2447 54.5546 31.2004 54.5193 31.1562 54.4839H31.1473C31.1473 54.4839 31.0678 54.422 31.0235 54.3954C30.997 54.3777 30.9616 54.36 30.9351 54.3335L31.0943 54.1743C31.0943 54.1743 31.1827 54.0947 31.2181 54.0593C31.2358 54.0416 31.2535 54.0239 31.28 54.0062C31.395 53.9089 31.51 53.8204 31.6427 53.7408C31.6692 53.7231 31.6958 53.7054 31.7223 53.6878C32.2973 53.3251 32.9784 53.1216 33.7038 53.1216C34.5087 53.1216 35.2517 53.3782 35.8621 53.8027C36.207 54.0416 36.5167 54.3512 36.7643 54.6962C37.1093 55.1827 37.3482 55.7488 37.4278 56.368L37.4101 56.3857Z" fill="#FFA19C"/>
</g>
<g opacity="0.6">
<g style="mix-blend-mode:screen">
<path d="M28.494 53.8291C29.1574 53.9617 29.644 54.2802 29.5909 54.5456C29.5378 54.8109 28.9628 54.9082 28.2994 54.7844C27.636 54.6517 27.1495 54.3333 27.2026 54.0679C27.2556 53.8025 27.8306 53.6964 28.494 53.8291Z" fill="white"/>
</g>
<g style="mix-blend-mode:screen">
<path d="M30.4049 54.2624C30.6615 54.3155 30.8207 54.5632 30.7676 54.8108C30.7145 55.0674 30.4669 55.2266 30.2192 55.1735C29.9627 55.1204 29.8034 54.8727 29.8565 54.6251C29.9096 54.3685 30.1484 54.2093 30.4049 54.2624Z" fill="white"/>
</g>
</g>
<g style="mix-blend-mode:multiply">
<path d="M48.8804 39.52C48.8804 43.67 45.5104 47.04 41.3604 47.04C37.2104 47.04 33.8405 43.67 33.8405 39.52C33.8405 35.37 37.2104 32 41.3604 32C45.5104 32 48.8804 35.37 48.8804 39.52Z" fill="#F66B04"/>
</g>
<path d="M47.6502 38.9098C47.6502 42.7198 44.5602 45.8098 40.7502 45.8098C36.9402 45.8098 33.8502 42.7198 33.8502 38.9098C33.8502 35.0998 36.9402 32.0098 40.7502 32.0098C44.5602 32.0098 47.6502 35.0998 47.6502 38.9098Z" fill="white"/>
<path d="M40.3038 44.0898V33.1797H41.0011V44.0898H40.3038ZM40.6554 43.1348C39.9757 43.1348 39.3859 43.0293 38.8859 42.8184C38.3859 42.6074 37.9952 42.3008 37.714 41.8984C37.4327 41.4922 37.2804 41 37.257 40.4219H38.8156C38.839 40.7266 38.9327 40.9805 39.0968 41.1836C39.2609 41.3828 39.4757 41.5332 39.7413 41.6348C40.0109 41.7363 40.3097 41.7871 40.6378 41.7871C40.9816 41.7871 41.2843 41.7344 41.546 41.6289C41.8077 41.5234 42.0128 41.377 42.1613 41.1895C42.3097 41.002 42.3839 40.7832 42.3839 40.5332C42.3839 40.3066 42.3175 40.1211 42.1847 39.9766C42.0519 39.8281 41.8683 39.7031 41.6339 39.6016C41.3995 39.5 41.1241 39.4102 40.8077 39.332L39.8175 39.0742C39.0988 38.8906 38.5323 38.6113 38.1183 38.2363C37.7042 37.8574 37.4972 37.3535 37.4972 36.7246C37.4972 36.209 37.6359 35.7598 37.9132 35.377C38.1906 34.9902 38.5695 34.6895 39.0499 34.4746C39.5343 34.2598 40.0812 34.1523 40.6906 34.1523C41.3116 34.1523 41.8566 34.2598 42.3253 34.4746C42.7941 34.6895 43.1613 34.9863 43.4269 35.3652C43.6925 35.7441 43.8312 36.1797 43.8429 36.6719H42.3136C42.2745 36.2969 42.1085 36.0078 41.8156 35.8047C41.5265 35.5977 41.1456 35.4941 40.673 35.4941C40.3448 35.4941 40.0616 35.543 39.8234 35.6406C39.589 35.7383 39.4093 35.873 39.2843 36.0449C39.1593 36.2168 39.0968 36.4121 39.0968 36.6309C39.0968 36.873 39.1691 37.0723 39.3136 37.2285C39.462 37.3809 39.6495 37.5039 39.8761 37.5977C40.1066 37.6914 40.3409 37.7695 40.5792 37.832L41.3937 38.0371C41.7218 38.1152 42.0382 38.2207 42.3429 38.3535C42.6476 38.4824 42.921 38.6465 43.1632 38.8457C43.4093 39.041 43.6027 39.2793 43.7433 39.5605C43.8878 39.8418 43.9601 40.1719 43.9601 40.5508C43.9601 41.0586 43.8292 41.5078 43.5675 41.8984C43.3058 42.2852 42.9288 42.5879 42.4366 42.8066C41.9445 43.0254 41.3507 43.1348 40.6554 43.1348Z" fill="black"/>
<g style="mix-blend-mode:multiply">
<path d="M30.4404 39.52C30.4404 43.67 27.0704 47.04 22.9204 47.04C18.7704 47.04 15.4004 43.67 15.4004 39.52C15.4004 35.37 18.7704 32 22.9204 32C27.0704 32 30.4404 35.37 30.4404 39.52Z" fill="#F66B04"/>
</g>
<path d="M29.2101 38.9098C29.2101 42.7198 26.1201 45.8098 22.3102 45.8098C18.5002 45.8098 15.4102 42.7198 15.4102 38.9098C15.4102 35.0998 18.5002 32.0098 22.3102 32.0098C26.1201 32.0098 29.2101 35.0998 29.2101 38.9098Z" fill="white"/>
<path d="M21.7632 44.0898V33.1797H22.4604V44.0898H21.7632ZM22.1147 43.1348C21.4351 43.1348 20.8452 43.0293 20.3452 42.8184C19.8452 42.6074 19.4546 42.3008 19.1733 41.8984C18.8921 41.4922 18.7397 41 18.7163 40.4219H20.2749C20.2983 40.7266 20.3921 40.9805 20.5562 41.1836C20.7202 41.3828 20.9351 41.5332 21.2007 41.6348C21.4702 41.7363 21.769 41.7871 22.0972 41.7871C22.4409 41.7871 22.7437 41.7344 23.0054 41.6289C23.2671 41.5234 23.4722 41.377 23.6206 41.1895C23.769 41.002 23.8433 40.7832 23.8433 40.5332C23.8433 40.3066 23.7769 40.1211 23.644 39.9766C23.5112 39.8281 23.3276 39.7031 23.0933 39.6016C22.8589 39.5 22.5835 39.4102 22.2671 39.332L21.2769 39.0742C20.5581 38.8906 19.9917 38.6113 19.5776 38.2363C19.1636 37.8574 18.9565 37.3535 18.9565 36.7246C18.9565 36.209 19.0952 35.7598 19.3726 35.377C19.6499 34.9902 20.0288 34.6895 20.5093 34.4746C20.9937 34.2598 21.5405 34.1523 22.1499 34.1523C22.771 34.1523 23.3159 34.2598 23.7847 34.4746C24.2534 34.6895 24.6206 34.9863 24.8862 35.3652C25.1519 35.7441 25.2905 36.1797 25.3022 36.6719H23.7729C23.7339 36.2969 23.5679 36.0078 23.2749 35.8047C22.9858 35.5977 22.605 35.4941 22.1323 35.4941C21.8042 35.4941 21.521 35.543 21.2827 35.6406C21.0483 35.7383 20.8687 35.873 20.7437 36.0449C20.6187 36.2168 20.5562 36.4121 20.5562 36.6309C20.5562 36.873 20.6284 37.0723 20.7729 37.2285C20.9214 37.3809 21.1089 37.5039 21.3354 37.5977C21.5659 37.6914 21.8003 37.7695 22.0386 37.832L22.853 38.0371C23.1812 38.1152 23.4976 38.2207 23.8022 38.3535C24.1069 38.4824 24.3804 38.6465 24.6226 38.8457C24.8687 39.041 25.062 39.2793 25.2026 39.5605C25.3472 39.8418 25.4194 40.1719 25.4194 40.5508C25.4194 41.0586 25.2886 41.5078 25.0269 41.8984C24.7651 42.2852 24.3882 42.5879 23.896 42.8066C23.4038 43.0254 22.8101 43.1348 22.1147 43.1348Z" fill="black"/>
</g>
<defs>
<radialGradient id="paint0_radial_1457_93487" cx="0" cy="0" r="1" gradientUnits="userSpaceOnUse" gradientTransform="translate(32.1529 32.1358) rotate(90) scale(49.934 35.437)">
<stop stop-color="#F99406"/>
<stop offset="0.476332" stop-color="#F66B04"/>
<stop offset="1" stop-color="#ED2D00"/>
</radialGradient>
<radialGradient id="paint1_radial_1457_93487" cx="0" cy="0" r="1" gradientUnits="userSpaceOnUse" gradientTransform="translate(32.132 35.4709) rotate(90) scale(42.6855 30.6047)">
<stop stop-color="#F99406"/>
<stop offset="0.476332" stop-color="#F66B04"/>
<stop offset="1" stop-color="#ED2D00"/>
</radialGradient>
<clipPath id="clip0_1457_93487">
<rect width="64" height="64" fill="white"/>
</clipPath>
</defs>
</svg>
